<svg width="134" height="49" viewBox="0 0 134 49" fill="none" xmlns="http://www.w3.org/2000/svg">
<path d="M26.2215 8.12836C28.3703 8.17072 29.7195 8.94959 31.4185 9.87542C35.266 11.8398 39.0005 16.6258 39.6746 21.037C39.862 22.0277 39.954 23.0407 39.95 24.053C39.945 26.3805 39.4127 28.7155 38.4279 30.7912C38.3556 30.9439 38.2832 31.0209 38.249 31.0894C37.9364 31.7378 37.3356 32.7904 36.9055 33.3633C36.0579 34.6122 34.1576 36.4466 32.9774 37.1648C32.4909 37.4875 31.9708 37.7871 31.7375 37.8328C31.5509 37.9338 31.4801 38.0468 31.4327 38.0764C31.4322 38.0766 31.4316 38.0768 31.431 38.0771C31.279 38.1731 30.8525 38.3334 30.7636 38.3772C30.7502 38.3838 30.8544 38.3889 30.6288 38.4783C30.6086 38.486 30.6133 38.4487 30.4274 38.5319C30.3805 38.5565 29.7718 38.8676 29.5876 38.936C28.9884 39.1934 27.4801 39.5791 26.7133 39.6936C26.5963 39.7139 26.5319 39.7441 26.4076 39.7638C26.3433 39.774 26.2449 39.7672 26.2252 39.7701C26.1401 39.7844 25.7725 39.9252 25.8858 39.7227C25.4937 39.7802 25.6151 39.8267 25.6107 39.8683C25.1818 39.9174 24.968 39.8387 24.8605 39.939C24.5606 39.9542 24.2618 39.9609 23.9597 39.9593C22.1335 39.9506 20.3097 39.6274 18.5949 39.0007C18.5892 39.0148 18.5834 39.0289 18.5777 39.0431C18.0094 38.7707 17.7747 38.777 17.4814 38.5519C17.2721 38.4795 17.0648 38.403 16.8577 38.3215C11.771 35.7683 8.22169 30.4077 8.02866 24.7522C8.01971 24.5159 8.04799 24.4564 8.04621 24.0649C8.04621 24.0609 8.04621 24.057 8.04621 24.053C8.04621 24.053 8.04621 24.053 8.04621 24.053C8.04464 23.6216 8.03059 23.0195 8.088 22.4588C8.13513 21.9594 8.27607 21.2355 8.40047 20.6938C8.42791 20.5711 8.42846 20.478 8.43172 20.4642C8.45129 20.3833 8.48389 20.3867 8.50356 20.3087C8.52715 20.2153 8.53191 20.0974 8.56195 19.9892C8.67206 19.5863 8.80319 19.1531 8.82081 19.1026C8.90333 18.8619 8.9533 18.8202 8.96019 18.8006C9.058 18.5364 8.9962 18.6265 9.02166 18.5608C9.15799 18.2201 9.31626 18.0102 9.45704 17.5262C9.47568 17.5495 9.49436 17.5728 9.51308 17.596C9.68392 17.2562 9.51598 17.4552 9.53668 17.3791C9.54095 17.3463 9.91499 16.6135 9.95061 16.5613C10.0592 16.3693 10.0942 16.3817 10.1036 16.3652C10.1254 16.3245 10.3668 15.8237 10.5475 15.6008C10.7587 15.3375 10.6069 15.7088 10.6632 15.6458C10.6718 15.6347 10.8558 15.3379 10.9014 15.3123C10.9498 15.2826 10.7833 15.5332 10.7949 15.5352C10.8012 15.5348 11.1206 15.1492 11.0952 15.2478C11.0767 15.3278 10.6741 15.8686 10.6169 16.0017C10.607 16.0231 10.6654 16.0067 10.656 16.0253C10.6011 16.0898 9.87589 17.4574 9.85712 17.5268C9.87382 17.4457 9.89118 17.3648 9.90925 17.2838C9.86084 17.3797 9.81343 17.4761 9.76696 17.5732C9.8168 17.4277 9.86861 17.2833 9.92308 17.1387C9.67758 17.2738 9.54043 17.9726 9.60521 18.0276C9.63332 18.0519 9.88182 17.7076 9.77975 18.083C9.81092 18.0328 9.84245 17.9826 9.87419 17.9328C9.90827 17.8165 9.94375 17.7005 9.98062 17.5848C9.93823 17.6536 9.89633 17.7228 9.85492 17.7924C9.85707 17.7609 9.85931 17.7295 9.86166 17.698C9.93889 17.4848 10.0208 17.2732 10.1079 17.0626C10.1678 16.9622 10.1853 16.9984 10.2275 16.9303C10.7696 16.0918 10.3695 16.6124 10.7106 16.0557C10.7735 15.9849 10.8371 15.9145 10.9011 15.845C10.8239 15.8352 11.0133 15.6135 11.1859 15.3082C11.1811 15.3557 11.1766 15.4031 11.1724 15.4504C11.4376 15.0169 12.1646 14.2903 11.895 14.4277C11.9757 14.344 12.0571 14.2614 12.1396 14.1797C12.1863 14.0915 12.234 14.0037 12.2826 13.9162C12.3732 13.8155 12.465 13.7162 12.5581 13.618C12.5668 13.6251 12.5755 13.6322 12.5842 13.6393C12.5115 13.7188 12.4397 13.7989 12.3687 13.8799C12.4477 13.8417 12.5267 13.8043 12.606 13.7678C12.6548 13.7055 12.7041 13.6436 12.7539 13.582C12.5048 13.8034 12.7626 13.4461 12.8054 13.3384C12.9891 13.1235 13.1597 13.0398 13.2289 12.9762C13.2595 12.9452 13.5724 12.5134 13.4992 12.7362C13.6868 12.5439 13.8795 12.3564 14.0775 12.1736C14.1639 12.113 14.2507 12.0534 14.3382 11.9946C14.194 12.1771 14.7471 11.8187 14.3829 12.1362C14.1139 12.3754 14.0161 12.3974 13.8867 12.5097C13.7707 12.6116 13.7322 12.6907 13.6098 12.805C12.7904 13.5784 12.1787 14.2673 11.5374 15.1251C11.4113 15.2951 11.3159 15.4636 11.2354 15.5803C11.1446 15.7125 11.2204 15.5216 11.1166 15.6983C11.0085 15.8845 11.0137 15.9425 10.9841 15.9908C10.9658 16.0208 10.8808 16.1001 10.8279 16.1884C10.6069 16.5497 10.3464 17.1134 10.321 17.1675C10.2796 17.2226 9.76189 18.3013 9.74646 18.3574C9.73303 18.3845 9.64959 18.2841 9.66643 18.5744C9.63902 18.6521 9.61219 18.7302 9.58607 18.8083C9.56938 18.7881 9.55276 18.7677 9.53617 18.7473C9.45241 19.2362 9.46167 19.0603 9.32421 19.5118C8.99127 20.5868 8.67841 22.2323 8.65603 23.4635C8.6492 23.7023 8.66783 23.8132 8.67383 24.053C8.67383 24.053 8.67383 24.053 8.67383 24.053C8.67482 24.0886 8.67561 24.1271 8.67617 24.1692C8.67397 24.471 8.64064 25.2624 8.7429 25.0841C8.69598 25.7605 8.88379 25.8504 8.82357 26.1952C8.84423 26.2333 8.86502 26.2712 8.88595 26.3089C8.87705 26.6791 8.95262 26.7821 9.03889 27.1685C9.07805 27.3354 8.96745 27.1576 9.11826 27.4784C9.12745 27.544 9.13707 27.6095 9.14711 27.6749C9.12721 27.664 9.10732 27.653 9.08744 27.642C9.19212 28.0115 9.19431 28.0378 9.24262 27.9792C9.27931 28.1614 9.31929 28.3427 9.36253 28.5231C9.38892 28.539 9.41534 28.5549 9.44178 28.5707C9.37533 28.5067 8.63703 25.1851 8.72706 24.053C8.72706 24.053 8.72706 24.053 8.72706 24.053C8.72448 23.9267 8.72365 23.83 8.72281 23.7706C8.76536 23.0865 8.86163 21.7106 8.99264 21.1671C9.0395 20.9509 9.10395 20.8627 9.18225 20.5508C9.26009 20.24 9.32934 19.8366 9.37804 19.6722C9.48481 19.1004 10.5955 16.6264 9.91435 18.3378C9.95526 18.2975 9.99633 18.2575 10.0375 18.2179C10.2571 17.5193 10.1929 17.7788 10.4655 17.2398C10.5797 17.0134 10.8322 16.4602 10.9062 16.5421C10.6873 16.9586 10.4312 17.3886 10.262 17.7614C10.2438 17.7979 10.09 18.2595 9.98857 18.4859C9.89664 18.6903 9.85578 18.5113 9.79179 19.0086C9.56883 19.3151 9.60021 19.5501 9.58211 19.6433C9.55139 19.8066 9.49534 19.8088 9.44402 19.9669C9.3885 20.1394 9.39189 20.2694 9.3859 20.2933C9.31003 20.5287 9.07284 21.7967 9.05584 21.8543C9.054 21.8017 9.05241 21.7493 9.0512 21.6961C8.98577 22.0256 9.0517 21.9638 9.04584 22.0518C9.03702 22.1166 9.02861 22.1816 9.02062 22.2467C9.01252 22.2196 9.00449 22.1924 8.99653 22.1651C8.95364 22.559 9.02146 22.2637 8.96982 22.8202C8.9394 23.175 8.88452 23.5411 8.88686 23.5759C8.88747 23.586 8.91992 23.475 8.91938 23.6201C8.91906 23.7425 8.9178 23.9107 8.9133 24.053C8.9133 24.053 8.9133 24.053 8.9133 24.053C8.90882 24.1898 8.90081 24.3017 8.88185 24.3249C8.88971 24.4429 8.92842 24.4318 8.92962 24.4474C8.92439 24.516 9.01489 25.6852 9.05554 25.8943C9.13153 26.4697 9.23956 27.1133 9.40024 27.723C9.41673 27.7856 9.38251 27.7516 9.39942 27.8144C9.42444 27.9171 9.60885 28.422 9.63729 28.496C9.70038 28.6861 9.85813 29.1865 9.8995 29.2595C9.90502 29.2699 9.87664 29.0963 9.95642 29.282C10.0462 29.4874 9.96173 29.3907 9.9655 29.4023C10.1151 29.8337 10.2612 30.0854 10.397 30.3645C10.441 30.4548 10.491 30.6374 10.5641 30.7603C10.5725 30.7745 10.5859 30.7314 10.5945 30.7451C10.7052 30.9295 10.7487 31.1333 10.7901 31.2171C10.892 31.4215 10.8698 31.2917 10.8757 31.302C10.9505 31.4339 11.0382 31.6188 11.1597 31.8146C11.7057 32.6853 12.2092 33.3606 12.9417 34.1703C13.034 34.2716 13.1245 34.4103 13.1392 34.4255C13.1845 34.472 13.1966 34.4346 13.3275 34.5687C13.6042 34.8507 13.8732 35.1 14.1681 35.3569C14.2275 35.4085 14.2317 35.4554 14.2771 35.4949C14.4279 35.6315 15.0217 35.9852 14.9684 36.0754C15.3458 36.2382 15.517 36.4548 15.788 36.6311C16.4255 37.0552 17.4943 37.598 18.1966 37.8936C18.3434 37.9574 18.4033 38.0105 18.486 38.0447C18.6324 38.1133 19.5041 38.3952 19.5509 38.4071C19.6383 38.4411 19.5488 38.5468 20.0456 38.5743C20.323 38.64 20.2778 38.6779 20.3344 38.6951C20.7763 38.826 21.2372 38.7958 21.1358 38.8807C21.668 38.9524 22.0156 38.9368 22.222 39.0569C22.2249 39.0103 22.4769 39.0125 22.776 39.0533C22.4622 39.1028 22.4916 39.1682 21.7467 39.0523C21.735 39.0504 21.7622 39.0204 21.7505 39.0185C21.6456 39.0011 21.4195 38.9826 21.2397 38.9478C21.0599 38.9128 21.1642 38.9087 21.0922 38.8955C21.0264 38.8832 21.0223 38.9153 20.9271 38.8965C20.6167 38.8349 20.3433 38.7773 20.1697 38.7331C20.0595 38.7052 19.9445 38.6447 19.8601 38.621C19.5332 38.5334 18.8425 38.3305 18.4417 38.1658C18.3583 38.132 18.4046 38.1172 18.2239 38.0407C18.2027 38.0316 18.1131 38.0311 17.9514 37.9689C17.7901 37.9065 17.6751 37.836 17.5734 37.7925C17.4885 37.7557 17.5108 37.7995 17.3387 37.7185C17.1814 37.6743 15.6361 36.7596 15.572 36.68C15.4594 36.5967 15.4278 36.5249 15.3549 36.4805C15.342 36.4729 15.2983 36.4911 15.254 36.4634C14.5041 36.0293 13.1085 34.7154 12.4898 33.953C11.1546 32.3971 10.1774 30.7277 9.51855 28.7584C9.5005 28.7253 9.48255 28.6921 9.46471 28.6588C9.52818 28.8596 9.5957 29.0586 9.66718 29.2557C9.65004 29.2633 9.6329 29.271 9.61577 29.2787C9.71181 29.5477 9.74144 29.4957 9.76314 29.4789C9.79011 29.5811 9.81815 29.6831 9.84726 29.7848C9.93862 29.845 10.1761 30.5051 10.3422 30.8272C10.4468 31.0383 10.6005 31.2722 10.6591 31.3815C10.7827 31.612 10.746 31.6253 10.7554 31.6437C10.7717 31.675 10.9867 31.9723 11.1279 32.1947C11.3375 32.5222 11.3078 32.5952 11.6618 32.9985C12.0381 33.5709 12.539 34.1453 13.0576 34.6689C12.9177 34.609 13.4201 35.0434 13.6412 35.2425C14.961 36.495 16.8784 37.7134 18.6129 38.3642C18.8347 38.4501 18.9932 38.5398 19.1198 38.5808C19.1884 38.603 19.2305 38.5751 19.324 38.6105C19.3403 38.6166 19.3411 38.6567 19.517 38.7162C19.9547 38.8763 21.0932 39.0679 21.3703 39.1762C22.2262 39.3157 23.0932 39.3819 23.9597 39.3759C23.9597 39.3759 23.9597 39.3759 23.9597 39.3759C24.6795 39.3708 25.3931 39.3165 26.1044 39.2118C26.1458 39.2213 26.1872 39.2306 26.2287 39.2398C26.5182 39.1294 27.6895 38.9422 28.2453 38.763C29.2279 38.48 30.422 37.9494 31.202 37.516C31.3723 37.4234 31.5219 37.3644 31.6804 37.2713C31.7486 37.2311 31.8183 37.1564 31.8883 37.1136C32.679 36.6396 33.6976 35.9065 34.3744 35.2656C35.9166 33.8224 37.1061 32.1727 37.9739 30.2134C38.8275 28.2758 39.2608 26.1592 39.2533 24.053C39.2533 24.053 39.2533 24.053 39.2533 24.053C39.2829 18.9535 36.5418 13.9957 32.2978 11.2521C32.2177 11.1998 32.2394 11.1749 32.1769 11.1346C31.8109 10.8903 30.942 10.4366 30.4916 10.2306C30.138 10.0579 29.5752 9.77474 29.4291 9.77544C30.7093 10.3458 32.0103 11.0572 33.1515 11.9544C33.2326 12.0182 33.2234 12.0508 33.2331 12.059C33.4108 12.212 33.3221 12.0853 33.5877 12.298C33.6838 12.3635 34.3961 13.1366 34.3684 12.9837C34.5442 13.1671 35.7257 14.4816 35.9239 14.7608C35.9906 14.8403 35.9688 14.7644 35.9826 14.7797C36.0424 14.8467 36.0347 14.9035 36.0818 14.9679C36.2095 15.1374 36.5466 15.5633 36.6016 15.6506C36.7364 15.8461 37.0801 16.4683 37.2339 16.7403C37.3774 16.9885 37.389 16.9213 37.5067 17.1403C37.5972 17.3141 37.4728 17.1384 37.6537 17.5357C37.7465 17.7302 38.0679 18.4162 38.1296 18.5901C38.1959 18.7623 38.2429 18.9625 38.3259 19.2017C38.4505 19.5458 38.6799 20.3068 38.7652 20.6687C38.7705 20.6902 38.8145 20.7359 38.8256 20.7898C38.8483 20.9014 38.8014 20.8764 38.815 20.9612C38.8452 21.0413 39.0756 22.5075 39.0764 22.7596C39.0906 22.9321 39.1224 23.0504 39.1279 23.1466C39.132 23.2219 39.0987 23.2324 39.1021 23.3085C39.1033 23.332 39.1423 23.5318 39.1455 23.7343C39.1466 23.7968 39.1454 23.9167 39.1413 24.053C39.1413 24.053 39.1413 24.053 39.1413 24.053C39.1338 24.3338 39.108 24.6786 39.1048 24.7346C39.1021 24.7891 39.1294 24.7298 39.1204 24.8916C39.1117 25.0395 39.0736 25.1339 39.0669 25.2174C39.0512 25.4113 39.0572 25.629 39.0331 25.8357C38.9599 26.426 38.9174 26.3874 38.9126 26.423C38.8937 26.5202 38.9219 26.565 38.9173 26.5972C38.8983 26.7335 38.8422 27.0635 38.8174 27.1837C38.7874 27.3335 38.7406 27.3892 38.7038 27.5462C38.6763 27.663 38.6506 27.907 38.5772 28.173C38.4152 28.7706 38.1735 29.4712 37.9308 30.0295C37.8585 30.1966 37.8184 30.2092 37.7952 30.2595C37.6717 30.5232 37.63 30.6838 37.5928 30.7588C37.3347 31.2956 36.7488 32.1807 36.4271 32.6245C36.3044 32.8112 35.7396 33.6129 35.3646 34.0211C35.3226 34.0683 35.3436 34.008 35.3 34.0632C35.1952 34.1949 35.2415 34.2159 35.183 34.2783C35.1545 34.3083 35.0706 34.359 34.9863 34.4445C34.5484 34.8869 34.246 35.1902 34.0332 35.3787C31.99 37.1942 29.3931 38.4209 26.893 38.8944C26.616 38.9483 26.2713 39.0382 25.8435 39.0629C25.8286 39.0494 25.8137 39.0359 25.7988 39.0224C25.7857 39.0391 25.7726 39.0557 25.7595 39.0723C25.2775 39.1347 25.0968 39.1687 24.6004 39.1733C24.5577 39.1736 24.4262 39.1088 24.348 39.197C24.01 39.1611 24.0315 39.1745 23.9597 39.1915C23.9597 39.1915 23.9597 39.1915 23.9597 39.1915C23.9269 39.1989 23.8746 39.2065 23.7599 39.2069C23.3945 39.208 23.042 39.1714 22.6901 39.1379C22.4999 39.0939 23.3146 39.0801 23.3647 39.0768C23.449 39.0804 23.5357 39.1259 23.6176 39.13C23.7409 39.1363 23.8627 39.1302 23.9597 39.1274C24.0534 39.1247 24.1237 39.1252 24.1507 39.1437C24.4638 39.098 24.0736 39.1249 24.1124 39.0874C24.3217 39.1004 24.5306 39.1091 24.7391 39.1136C24.8399 38.9959 25.9999 39.0438 25.9095 38.9513C26.0027 38.9583 26.096 38.9644 26.1894 38.9697C26.5706 38.791 26.812 38.8355 27.3475 38.7515C27.3062 38.7454 27.2651 38.7392 27.224 38.7327C27.2341 38.7258 27.6878 38.5922 27.5388 38.6944C27.9874 38.4936 28.0072 38.6337 28.3942 38.411C28.6364 38.3203 28.508 38.4279 28.9462 38.2768C29.2047 38.186 29.5135 38.0347 29.7936 37.9138C29.8584 37.8861 29.9004 37.9055 29.9582 37.8805C30.0159 37.8553 30.0304 37.8121 30.0995 37.7803C30.2422 37.7147 30.4361 37.6493 30.5236 37.6041C30.6021 37.5637 30.7022 37.4819 30.8877 37.3802C31.5315 37.0172 31.3529 37.1543 31.4628 37.111C31.5795 37.061 31.6293 36.9682 31.8458 36.8427C31.8676 36.83 31.8306 36.894 31.8994 36.8497C31.9548 36.8137 31.9634 36.7648 32.1423 36.6405C32.2215 36.603 33.3084 35.8077 33.4562 35.6646C33.701 35.4682 34.2446 35.025 34.4747 34.7936C34.5644 34.7057 34.6375 34.5893 34.7302 34.494C35.0396 34.1797 35.5095 33.6515 35.8499 33.2074C36.1637 32.8146 36.7108 32.1116 36.7981 31.84C37.1546 31.2296 37.2692 31.0946 37.2971 31.049C37.3659 30.9216 37.3661 30.8465 37.4454 30.6826C38.379 28.8232 39.0151 26.1887 38.9836 24.053C38.9836 24.053 38.9836 24.053 38.9836 24.053C38.9839 23.7638 38.9758 23.4873 38.9611 23.2226C38.7182 18.024 35.5015 13.0999 30.8692 10.7217C30.8498 10.7288 30.8305 10.7359 30.8112 10.7431C31.3516 11.0309 31.9545 11.4247 32.445 11.7739C33.1067 12.228 34.0606 12.962 34.4008 13.4571C34.2259 13.2954 33.9662 13.0032 33.935 13.048C34.2478 13.3368 34.548 13.6388 34.8347 13.9531C34.8442 13.9269 34.8536 13.9008 34.863 13.8746C35.173 14.1958 35.4657 14.5472 35.7434 14.8985C35.7915 14.9597 35.7755 14.9023 35.8171 14.956C35.8633 15.0163 35.8139 14.9893 35.8224 15.0007C35.9384 15.1533 35.9905 15.1867 36.0042 15.2056C36.0389 15.2547 35.9942 15.2297 36.0902 15.3735C36.2675 15.6407 36.4414 15.801 36.319 15.7922C36.3764 15.8779 36.4329 15.9642 36.4885 16.0511C36.5253 16.0593 36.562 16.0677 36.5988 16.0763C36.845 16.671 37.1453 16.8408 37.1776 17.2221C37.251 17.3144 37.3235 17.4079 37.3951 17.5026C37.4001 17.5733 37.4044 17.6436 37.4083 17.7138C37.4343 17.7155 37.4603 17.7174 37.4863 17.7193C37.7377 18.2927 38.0057 18.9041 38.186 19.4763C38.3099 19.8753 38.3276 19.9733 38.4234 20.3312C38.6196 21.1278 38.3912 20.3453 38.4909 21.0203C38.511 20.9799 38.5309 20.9394 38.5507 20.8987C38.5846 21.0075 38.6171 21.1161 38.6484 21.2252C38.6408 21.3068 38.6326 21.3883 38.6238 21.4696C38.8002 21.7949 38.7341 22.0343 38.7406 22.0806C38.7448 22.118 38.8371 22.2417 38.8167 22.6591C38.8981 22.4796 38.8451 22.9728 38.8452 23.0117C38.8489 23.0489 38.8964 23.5203 38.8976 23.7129C38.899 23.792 38.8952 23.9181 38.8897 24.053C38.8897 24.053 38.8897 24.053 38.8897 24.053C38.8848 24.1765 38.8786 24.3065 38.8765 24.4141C38.8722 24.6126 38.9048 24.5935 38.9049 24.6081C38.8976 24.8525 38.8787 24.6977 38.8686 24.8747C38.8578 25.052 38.8751 25.191 38.8696 25.229C38.8668 25.248 38.8412 25.1817 38.8313 25.269C38.8057 25.5022 38.7858 25.9319 38.7452 26.1987C38.7314 26.2931 38.6872 26.409 38.6689 26.5142C38.6407 26.6755 38.6607 26.7567 38.6421 26.8501C38.6354 26.8827 38.5443 27.0791 38.4947 27.3368C38.4854 27.3852 38.5629 27.5562 38.3599 27.7053C38.3781 27.7253 38.3962 27.7453 38.4144 27.7654C38.2416 28.6346 37.9739 28.8021 37.9968 29.2245C37.7521 29.8172 37.8496 29.3826 37.8157 29.4452C37.794 29.4852 37.7328 29.6841 37.7229 29.7047C37.7057 29.7413 37.6896 29.7271 37.6727 29.7679C37.3543 30.5139 37.5295 30.198 37.4448 30.4426C37.2276 31.021 36.8941 31.3854 37.4051 30.4514C37.3949 30.4465 37.3847 30.4416 37.3744 30.4368C37.2754 30.68 36.9574 31.2626 37.011 31.0399C37.0708 30.874 37.7456 29.4631 37.3209 30.2425C37.223 30.4173 37.2172 30.5322 36.9875 30.804C36.8774 31.0043 36.9535 31.0836 36.764 31.335C36.8207 31.3084 36.8773 31.2813 36.9339 31.2537C36.768 31.6522 36.4333 32.0679 36.2657 32.3495C36.2108 32.4459 36.1165 32.8754 36.0312 32.6984C35.9359 32.8618 35.3652 33.5381 35.2653 33.6685C35.2412 33.6996 35.2836 33.8048 34.8709 34.2066C34.8354 34.2279 34.7997 34.2492 34.764 34.2702C35.0978 33.8662 34.4398 34.5142 34.5495 34.2717C34.6373 34.2392 34.9355 33.9527 34.9935 33.915C35.0942 33.8523 34.9018 34.1359 35.1794 33.8032C35.2492 33.5042 34.7855 34.1296 34.7614 33.9468C34.4267 34.402 34.3363 34.3939 34.2459 34.4822C33.8512 34.8538 33.6055 35.0919 33.2001 35.4044C33.1239 35.5096 33.8587 34.9394 33.9301 34.846C33.6838 35.207 34.2312 34.7172 34.4038 34.4526C34.4435 34.4556 34.4834 34.4585 34.5233 34.4612C34.2277 34.7376 33.9349 35 33.6484 35.2805C33.6213 35.2889 33.5941 35.2973 33.567 35.3056C33.624 35.2344 33.6803 35.1627 33.7358 35.0907C33.4682 35.287 33.6771 35.2269 33.2885 35.4497C33.2995 35.4847 33.3106 35.5199 33.3215 35.555C32.9846 35.8149 32.637 36.06 32.2797 36.2897C32.1393 36.4763 31.4252 36.8843 31.5079 36.7281C31.2216 36.8896 31.596 36.7249 31.3399 36.899C31.2284 36.9748 30.9982 37.1042 30.9297 37.1131C30.9151 37.0266 31.253 36.8281 31.3246 36.7175C31.2676 36.7615 29.6688 37.6171 29.7677 37.442C29.6305 37.4879 29.712 37.5098 29.4763 37.621C28.8131 37.9408 27.7017 38.1688 27.1539 38.4097C27.8458 38.3227 28.0264 38.1889 28.5305 38.0259C28.8668 37.9569 30.7524 37.104 30.3668 37.3679C30.4308 37.3245 30.4943 37.2806 30.5574 37.2363C30.6382 37.2255 30.7191 37.214 30.8 37.2018C30.6085 37.3059 30.4136 37.4063 30.2178 37.5018C30.1593 37.4998 30.101 37.4974 30.0429 37.4947C30.0289 37.5218 30.0148 37.5489 30.0006 37.576C29.9183 37.6169 29.8355 37.6572 29.7522 37.6966C29.7671 37.6656 29.7819 37.6345 29.7965 37.6034C29.6651 37.6559 29.5341 37.7059 29.4017 37.7544C29.4482 37.7686 29.4948 37.7826 29.5416 37.7964C28.9234 38.0482 29.1251 37.9465 28.7595 38.0167C28.4964 38.0987 28.9587 38.0089 28.4065 38.2037C27.7605 38.4131 28.1643 38.2112 27.3194 38.4425C27.3106 38.4602 27.3016 38.4778 27.2927 38.4954C27.1007 38.524 26.9076 38.5489 26.7161 38.5696C26.7446 38.5834 26.7732 38.5971 26.8018 38.6108C26.4095 38.6823 25.8674 38.7925 25.7271 38.733C26.1332 38.7183 26.1091 38.5871 26.0032 38.5791C25.8865 38.5706 24.9267 38.7013 23.9597 38.702C23.9597 38.702 23.9597 38.702 23.9597 38.702C23.1225 38.7121 22.2899 38.6296 22.0063 38.5911C21.2244 38.4882 20.6531 38.323 19.9429 38.1906C20.3938 38.4024 22.0964 38.6687 22.421 38.7125C22.4527 38.7191 22.4325 38.8372 22.6514 38.7233C23.046 38.7715 23.4883 38.7862 23.9597 38.7784C23.9597 38.7784 23.9597 38.7784 23.9597 38.7784C24.284 38.773 24.6132 38.7574 24.9545 38.7362C24.9313 38.7719 24.9079 38.8076 24.8842 38.8432C24.4408 38.8093 24.0301 38.9172 23.9597 38.8667C23.9597 38.8667 23.9597 38.8667 23.9597 38.8667C23.9481 38.8581 23.9464 38.8451 23.9562 38.8259C23.853 38.8259 23.7501 38.8248 23.6475 38.8227C23.647 38.8455 23.6466 38.8683 23.6461 38.8911C23.4906 38.8879 23.336 38.8823 23.1814 38.8743C23.1826 38.8515 23.1838 38.8287 23.1849 38.8059C23.0564 38.7993 22.9283 38.791 22.8007 38.7811C22.7856 38.8027 22.7705 38.8244 22.7554 38.846C22.3767 38.7847 21.0594 38.7022 21.6515 38.6582C21.4728 38.6302 21.2952 38.599 21.1186 38.5646C21.116 38.5811 21.1134 38.5976 21.1108 38.6141C21.0342 38.6015 20.958 38.5883 20.881 38.5743C20.9092 38.5649 20.9374 38.5553 20.9655 38.5457C20.6093 38.5003 20.3042 38.3418 20.0648 38.3306C20.2108 38.3821 20.357 38.4312 20.5042 38.4781C20.2226 38.3918 19.6848 38.2836 19.6389 38.2679C19.497 38.2248 19.4314 38.1687 19.2792 38.1165C19.1419 38.069 19.1526 38.0995 19.1272 38.0899C18.3968 37.8002 18.7323 37.7688 18.33 37.7888C18.3025 37.7531 18.2753 37.7172 18.2483 37.6813C18.1935 37.6788 18.1382 37.6758 18.083 37.6726C17.8707 37.5789 17.6615 37.4806 17.4541 37.3772C17.5112 37.4367 17.5686 37.4957 17.6268 37.5543C17.3055 37.4166 17.1873 37.2887 17.1579 37.2727C17.0748 37.2261 17.0197 37.2371 16.9935 37.2234C15.7559 36.526 16.5201 36.9222 15.9907 36.4407C15.752 36.3482 15.9354 36.5308 15.9374 36.5952C15.6688 36.3914 15.5737 36.3452 15.2861 36.1368C15.2115 36.0823 15.1488 36.0002 15.1025 35.9652C15.0623 35.935 14.9178 35.8645 14.8222 35.7899C14.6626 35.6659 14.4653 35.4828 14.2561 35.3026C14.0802 35.1555 13.5458 34.6964 13.2088 34.3384C13.0644 34.1866 13.1171 34.2039 13.0801 34.1645C13.0648 34.1481 12.9313 34.0491 12.8419 33.9486C12.1111 33.1302 11.473 32.1974 10.9407 31.2341C10.5653 30.5562 10.2156 29.846 9.95338 29.1121C9.89816 28.9562 9.94897 29.0311 9.92571 28.9628C9.91809 28.9392 9.86936 28.9246 9.80412 28.676C9.78095 28.5861 9.83992 28.6789 9.81332 28.5919C9.80085 28.5496 9.7604 28.5422 9.67863 28.2971C9.53171 27.8493 9.52124 27.5904 9.50937 27.5507C9.48842 27.4746 9.46582 27.5037 9.44113 27.4016C9.32173 26.9011 9.24334 26.4789 9.18035 26.0259C9.13136 25.8145 9.02921 24.3429 9.05056 24.2603C9.05951 24.0896 9.11362 24.2276 9.11787 24.053C9.11819 24.0415 9.11831 24.0287 9.11822 24.0144C9.10329 23.9491 9.08878 23.8838 9.07469 23.8184C9.06484 23.8963 9.05559 23.9745 9.04694 24.053C9.04411 24.0786 9.04135 24.1042 9.03866 24.1299C9.04023 24.1045 9.0415 24.0789 9.04252 24.053C9.04252 24.053 9.04252 24.053 9.04252 24.053C9.05271 23.7867 9.03911 23.5012 9.04973 23.3098C9.05102 23.2708 9.0994 22.9127 9.11369 22.7313C9.11806 22.8096 9.12304 22.8878 9.12862 22.9661C9.14014 22.9394 9.15172 22.9127 9.16337 22.8862C9.17684 22.5236 9.22158 22.137 9.28054 21.7697C9.30222 21.6362 9.31784 21.685 9.34114 21.5505C9.49 20.7742 9.35602 20.9409 9.71618 20.2484C9.62592 20.49 9.45521 21.4104 9.43368 21.5443C9.41231 21.6361 9.20619 21.9783 9.38171 21.8678C9.28072 22.6173 9.27398 21.9538 9.21686 22.6622C9.23727 22.6499 9.2577 22.6377 9.27814 22.6255C9.26677 22.8718 9.26441 23.0542 9.22195 23.2028C9.28384 23.2432 9.25497 23.648 9.2482 24.053C9.2482 24.053 9.2482 24.053 9.2482 24.053C9.24462 24.2337 9.24439 24.4121 9.25113 24.5537C9.28067 25.2174 9.38082 25.9612 9.49972 26.6068C9.54029 26.8291 9.53074 26.9612 9.53631 26.989C9.54468 27.0295 9.59982 27.1379 9.61791 27.2186C9.67654 27.5213 9.87795 28.4447 10.0432 28.6375C9.55653 27.1611 9.31083 25.6089 9.3114 24.053C9.3114 24.053 9.3114 24.053 9.3114 24.053C9.31142 23.7704 9.31933 23.4913 9.33519 23.211C9.25708 23.4369 9.43913 21.5866 9.48744 21.496C9.50458 21.4102 9.52189 21.488 9.52825 21.4628C9.57494 21.2752 9.56433 21.1064 9.57697 21.0457C9.58664 20.9997 9.62607 20.9112 9.6628 20.7491C9.66958 20.7194 9.65005 20.7062 9.65749 20.6742C9.70716 20.4632 9.76124 20.2555 9.82048 20.0456C9.8243 20.0328 9.87023 19.9888 9.88566 19.9363C9.90105 19.8835 9.8859 19.8222 9.88982 19.8089C9.93941 19.6426 10.0522 19.364 10.1075 19.2086C10.1265 19.1545 10.0911 19.1842 10.1128 19.1236C10.1804 18.938 10.2007 19.0146 10.2765 18.782C10.3025 18.7042 10.2673 18.6961 10.3301 18.552C10.375 18.4502 10.4288 18.4854 10.4375 18.47C10.448 18.4489 10.5535 18.0764 10.6443 17.9801C10.6299 18.273 10.7739 17.7119 10.7231 17.7172C10.7992 17.5851 10.8774 17.4542 10.9574 17.325C10.9709 17.2738 10.9847 17.2226 10.9987 17.1715C11.3352 16.6572 11.5014 16.3224 11.8507 15.8319C11.866 15.8068 12.1802 15.4087 12.1808 15.4388C12.0244 15.6991 11.8572 15.9486 11.7082 16.0826C11.6198 16.4044 11.5466 16.3641 11.2989 16.8153C11.2175 16.9671 11.2358 16.9912 11.2263 17.0085C10.9049 17.5954 10.4863 18.5761 10.2635 18.9757C10.2387 19.1014 10.4076 18.679 10.3594 18.8499C10.2897 18.9294 9.68695 21.1626 9.79817 20.4286C9.7816 20.5036 9.76561 20.5789 9.75021 20.6543C9.81404 20.7485 9.71425 21.1166 9.64058 21.0575C9.65017 21.0968 9.65999 21.1357 9.66997 21.1745C9.67043 21.2474 9.66197 21.3316 9.64547 21.449C9.58706 21.7634 9.39503 23.1794 9.41131 24.053C9.40992 24.4239 9.42379 24.6911 9.42909 24.7334C9.44939 24.7357 9.46969 24.738 9.48999 24.7403C9.48373 24.5114 9.48008 24.2828 9.48034 24.053C9.48034 24.053 9.48034 24.053 9.48034 24.053C9.48238 23.1022 9.54559 22.1438 9.79992 21.1308C9.77384 21.1637 9.74792 21.1967 9.72208 21.2299C9.84829 20.7266 10.0014 20.2318 10.1798 19.7491C10.0453 20.2775 9.87168 21.1249 9.75607 21.6831C9.73467 21.7826 9.72067 21.7048 9.71374 21.7274C9.69602 21.7866 9.72977 21.8587 9.7041 22.075C9.67566 22.2912 9.58957 22.836 9.58872 22.8863C9.58234 22.9831 9.61698 23.25 9.60978 23.4135C9.60017 23.6294 9.57361 23.4835 9.57122 23.5268C9.56158 23.7067 9.57513 23.8691 9.57233 24.011C9.57207 24.0242 9.57162 24.0382 9.57103 24.053C9.57103 24.053 9.57103 24.053 9.57103 24.053C9.56071 24.2753 9.528 24.6695 9.61459 24.8018C9.61077 24.6529 9.60923 24.5038 9.60998 24.3541C9.65965 25.1596 9.61639 25.8075 9.83461 26.5823C9.96541 26.742 9.83943 26.0993 9.97751 26.6368C9.95799 26.5385 9.93948 26.4398 9.92199 26.3407C9.89727 26.3208 9.87259 26.3008 9.84795 26.2807C9.83607 26.1067 9.82754 25.9339 9.82202 25.7599C9.8091 25.8112 9.79645 25.8627 9.78407 25.9143C9.68807 25.3048 9.64104 24.6802 9.73791 24.4644C9.71297 24.4525 9.68804 24.4405 9.66314 24.4285C9.66621 24.3118 9.6649 24.1831 9.66305 24.053C9.65385 23.5453 9.64825 23.0265 9.74832 23.1603C9.74275 23.1329 9.73726 23.1054 9.73184 23.0779C9.7849 22.736 9.71826 22.8787 9.72271 22.7488C9.72047 22.7122 9.82793 22.0472 9.83318 22.3477C9.94775 21.706 9.79958 21.887 9.82073 21.7067C9.94568 21.3022 10.0262 20.5476 10.0525 20.8788C10.07 20.8188 10.0878 20.7591 10.1061 20.6995C10.0775 20.4823 10.2157 20.3069 10.3054 20.1035C10.3279 20.0321 10.3509 19.9609 10.3745 19.8899C10.3638 19.8344 10.3535 19.7784 10.3435 19.7222C10.6848 19.0915 10.2934 19.1879 10.6764 18.9847C10.6747 19.0379 10.6733 19.0909 10.6722 19.1439C10.6388 19.2581 10.6071 19.372 10.5766 19.4867C10.7377 19.0381 10.922 18.597 11.1281 18.1669C11.457 17.6555 11.5376 17.3087 11.9373 16.7658C11.9633 16.7082 11.9897 16.6507 12.0164 16.5934C12.0385 16.6829 11.9013 16.8821 12.1666 16.516C12.2259 16.5086 12.0685 16.7678 11.9675 16.8688C11.9427 16.8931 12.0593 16.6305 11.8932 16.9045C11.7834 17.0926 12.0253 16.7761 11.6875 17.3337C11.7091 17.318 11.7307 17.3023 11.7523 17.2868C11.7178 17.3482 11.6837 17.4101 11.6502 17.4719C11.5975 17.5147 11.545 17.558 11.4927 17.6018C11.4527 17.7633 11.4565 17.8669 11.2907 18.1945C11.3181 18.0972 11.212 18.1972 11.1384 18.3651C11.1557 18.3728 11.1731 18.3805 11.1904 18.3882C11.0258 18.7981 11.0341 18.6363 10.9385 18.9934C10.9111 19.0221 10.8838 19.0511 10.8566 19.0802C10.8377 19.2888 10.6502 19.9973 10.6038 19.843C10.6266 20.0664 10.4714 20.4693 10.3629 20.6097C10.3782 20.6263 10.3934 20.6429 10.4087 20.6594C10.3917 20.7434 10.3755 20.8276 10.36 20.912C10.3382 20.956 10.3165 21.0003 10.2951 21.0448C10.2932 21.1068 10.2917 21.1688 10.2906 21.2308C10.2647 21.2629 10.2389 21.295 10.2133 21.3274C10.2166 21.4277 10.221 21.5279 10.2265 21.628C10.2013 21.6843 10.1765 21.7408 10.152 21.7977C10.1871 21.8113 10.1122 22.3951 10.0725 22.5589C10.0786 22.6094 10.0851 22.6594 10.0919 22.7093C10.0709 22.7314 10.05 22.7535 10.0291 22.7758C10.0407 22.8137 10.0526 22.8515 10.0645 22.8893C10.0426 22.9721 10.0214 23.0554 10.0009 23.1392C10.0721 23.4909 9.99439 23.4951 9.99147 23.5747C9.98891 23.6622 10.0047 23.877 10.0212 24.053C10.0212 24.053 10.0212 24.053 10.0212 24.053C10.0319 24.1704 10.042 24.2698 10.0414 24.3031C10.04 24.386 10.008 24.4269 10.0069 24.4939C10.009 25.6013 10.0836 25.1406 10.1114 25.3594C10.1301 25.4764 10.1083 25.5643 10.1238 25.6689C10.142 25.8496 10.33 26.7394 10.3429 26.7888C10.3525 26.8646 10.1736 26.7167 10.2606 26.9534C10.3366 26.9462 10.3793 27.4802 10.4292 27.2142C10.4692 27.428 10.5143 27.6414 10.5645 27.8541C10.6472 27.8054 10.661 28.0785 10.7571 28.3558C10.8835 28.7518 11.2929 29.5872 11.1973 29.5924C11.257 29.6749 11.3174 29.7565 11.3786 29.8371C11.6349 30.4648 11.9852 31.0335 12.3522 31.5952C13.4342 33.2695 15.003 34.8267 16.6936 35.8778C16.7747 35.9286 16.7469 35.9479 16.8056 35.9841C17.1109 36.1803 17.9544 36.6022 18.4199 36.8029C18.5683 36.8697 18.6297 36.9273 18.677 36.9483C18.8374 37.0188 18.814 36.9659 18.8885 36.9966C19.0046 37.0485 19.6252 37.3096 19.8486 37.3775C19.9577 37.4132 20.0967 37.4212 20.2235 37.4665C20.2344 37.4704 20.2051 37.4961 20.2144 37.4993C20.4505 37.568 20.3152 37.5017 20.3951 37.5247C20.9631 37.6859 21.5868 37.8103 22.2223 37.8957C22.3805 37.9175 22.6218 37.9654 22.7579 37.9787C22.8099 37.9837 22.7185 37.9518 22.8984 37.968C22.96 37.9732 22.9789 38.0069 23.0489 38.0135C23.3524 38.0407 23.4529 37.9402 23.7106 38.0291C23.786 38.0295 23.8699 38.0291 23.9597 38.0275C23.9597 38.0275 23.9597 38.0275 23.9597 38.0275C24.4672 38.0217 25.1491 37.9575 25.533 37.9109C25.6402 37.8986 25.6947 37.9111 25.7965 37.8975C25.8689 37.8879 25.9912 37.8411 26.1031 37.8234C26.2155 37.8057 26.3977 37.8046 26.612 37.7623C26.8369 37.7188 27.1141 37.6385 27.1639 37.6264C27.2248 37.6121 27.2614 37.6397 27.3222 37.6243C27.5065 37.58 27.9866 37.4099 28.2164 37.3297C28.4648 37.2457 28.618 37.2083 28.7021 37.1778C28.7797 37.1493 28.8603 37.0872 28.8955 37.0735C28.9503 37.0521 28.9759 37.0798 29.0456 37.0523C29.1595 37.007 29.2678 36.9398 29.4361 36.8674C32.4693 35.562 34.9599 33.2085 36.4308 30.3456C36.5936 30.025 36.6608 29.8337 36.8744 29.3505C36.959 29.154 36.9589 29.2509 37.0134 29.0928C37.0373 29.0221 37.0042 29.0297 37.036 28.9411C37.1774 28.5514 37.3453 28.0957 37.3934 27.9224C37.4129 27.8536 37.4044 27.7665 37.4414 27.6248C37.7213 26.5714 37.9086 25.2878 37.9026 24.1112C37.9026 24.0921 37.9026 24.0727 37.9025 24.053C37.9025 24.053 37.9025 24.053 37.9025 24.053C37.9035 23.4297 37.8229 22.5275 37.7076 21.8477C37.4059 19.9018 36.5971 17.9027 35.5972 16.4128C34.104 14.149 31.9432 12.3703 29.4789 11.2693C30.6135 11.8286 32.082 12.7291 33.1186 13.676C35.9759 16.1816 37.8546 20.116 37.8195 24.053C37.8195 24.053 37.8195 24.053 37.8195 24.053C37.8197 24.3076 37.813 24.5592 37.7994 24.81C37.7351 26.2538 37.3436 28.0557 36.6921 29.4957C36.6633 29.5612 36.6267 29.7075 36.5594 29.8471C36.5462 29.8774 36.3296 30.2255 36.2652 30.3462C36.397 30.2676 36.0854 30.712 36.0027 30.8557C35.9023 31.0388 35.715 31.4385 35.4192 31.8319C35.149 32.187 35.192 32.0659 35.1769 32.0855C35.0751 32.2055 35.0825 32.2788 35.0139 32.3784C34.7782 32.8236 32.9901 34.6367 32.3858 35.0171C32.2404 35.1279 32.2167 35.1049 32.1839 35.1294C32.0966 35.1941 31.9898 35.3108 31.8461 35.4105C31.5874 35.591 31.2655 35.7595 31.1173 35.8487C30.7671 36.0665 30.0902 36.4712 29.5964 36.6871C29.4579 36.7489 29.4531 36.7145 29.3902 36.7417C29.1166 36.8657 28.3939 37.1769 28.0325 37.2821C27.4509 37.4618 26.8348 37.5853 26.2271 37.6962C26.1859 37.6881 26.1448 37.6798 26.1038 37.6714C26.0447 37.6962 25.9867 37.7205 25.9276 37.7444C25.2784 37.8295 24.6213 37.8861 23.9597 37.8942C23.9597 37.8942 23.9597 37.8942 23.9597 37.8942C23.5615 37.8991 23.1685 37.8866 22.7779 37.8528C22.6588 37.846 22.07 37.7498 21.9738 37.7325C21.8929 37.7208 21.8071 37.7448 21.6868 37.7196C21.5191 37.6835 21.6892 37.6435 21.4117 37.6134C21.3372 37.6047 21.403 37.6478 21.2534 37.6281C21.2023 37.6296 20.2578 37.4165 20.2097 37.3921C20.127 37.3653 20.0708 37.2825 20.0499 37.2749C19.9412 37.235 19.9318 37.283 19.8561 37.2643C19.6313 37.2095 19.3583 37.0792 19.3234 37.0671C18.8934 36.9299 18.0994 36.6319 17.6885 36.3899C17.6314 36.3572 17.6552 36.3284 17.6455 36.3221C17.5831 36.2814 17.5231 36.2966 17.4602 36.2642C17.1205 36.0912 16.6229 35.761 16.3109 35.5412C16.2748 35.5163 16.1865 35.4808 16.1229 35.4344C15.7651 35.1701 15.9035 35.2255 15.8831 35.2103C15.8369 35.1725 15.7311 35.1393 15.6028 35.0444C15.2695 34.8043 14.6737 34.2882 14.363 33.9765C14.1285 33.7446 14.1631 33.7177 14.148 33.7023C14.1169 33.6684 14.0036 33.5999 13.853 33.4436C13.5654 33.1409 13.6236 33.153 13.5099 33.025C13.5007 33.0139 13.4928 33.0539 13.3677 32.9102C13.1216 32.6355 12.6512 31.955 12.4392 31.6245C12.356 31.4984 12.3116 31.4848 12.2287 31.3536C12.0944 31.1466 11.85 30.6479 11.8312 30.6086C11.8254 30.5978 11.782 30.5901 11.7481 30.5264C11.7109 30.4564 11.6907 30.379 11.6637 30.3264C11.5068 30.0287 11.2176 29.5224 11.3955 29.6198C11.3243 29.534 11.2537 29.4465 11.1844 29.3588C10.9191 28.7042 10.6935 28.056 10.5195 27.3769C10.4806 27.2245 10.4741 27.0912 10.4451 26.9614C10.4127 26.8323 10.2707 26.2636 10.2581 26.1645C10.2209 25.9941 10.1154 25.0033 10.1199 24.8779C10.1107 24.635 10.1556 24.401 10.1441 24.3026C10.1349 24.2238 10.107 24.2975 10.0975 24.1463C10.0957 24.1172 10.0947 24.0859 10.0943 24.053C10.0943 24.053 10.0943 24.053 10.0943 24.053C10.0896 23.7888 10.1326 23.433 10.1362 23.3631C10.1382 23.3294 10.1102 23.3915 10.1293 23.0727C10.1405 22.9011 10.1737 22.8119 10.1792 22.7502C10.1816 22.7307 10.1359 22.7571 10.1793 22.4183C10.2108 22.1851 10.2567 22.0912 10.2601 22.0669C10.2656 22.0305 10.2455 21.938 10.2707 21.7909C10.3264 21.4475 10.4961 20.8357 10.5856 20.5206C10.6028 20.4594 10.5573 20.4694 10.63 20.2259C10.683 20.0522 10.7048 20.0919 10.7254 20.0274C10.7584 19.9259 10.7692 19.7597 10.8478 19.535C10.9028 19.2323 11.882 17.2355 11.9859 17.1623C12.0305 17.0989 12.0764 17.0222 12.1106 16.9982C12.108 17.0347 12.1055 17.0712 12.1031 17.1076C11.8838 17.3712 12.0099 17.2864 11.9693 17.3662C11.909 17.4817 11.6752 17.9103 11.6382 18.0243C11.6247 18.0644 11.6973 17.9934 11.6162 18.2041C11.5307 18.4301 11.4311 18.504 11.4705 18.6263C11.2468 18.9038 11.2221 19.2482 11.3938 18.8913C11.4533 18.6735 12.4838 16.7747 12.777 16.4396C12.9787 16.1454 13.3612 15.5955 13.6546 15.2674C13.8219 15.0704 14.2614 14.6104 14.2768 14.6633C14.4405 14.5039 14.2392 14.6452 14.2682 14.6066C14.3258 14.5218 14.8633 14.0487 14.9665 13.9619C15.4566 13.5117 16.1028 12.9598 16.6821 12.6612C16.6632 12.6876 16.6445 12.7142 16.6259 12.7407C16.5144 12.8341 15.9452 13.196 15.9219 13.2913C16.7074 12.7035 17.5568 12.2021 18.4506 11.7997C18.4081 11.7506 19.543 11.298 19.6087 11.3139C19.5962 11.3435 19.5839 11.3731 19.5717 11.4027C18.8951 11.5495 18.9985 11.6458 18.5503 11.7672C18.3783 11.8427 18.4466 11.856 18.3659 11.9011C17.5732 12.3668 18.3137 11.8272 17.7019 12.1781C17.9156 12.1302 17.4166 12.4162 17.201 12.556C17.149 12.5821 16.4917 12.9816 16.42 13.039C15.9952 13.3288 15.3266 13.9017 14.9348 14.2278C14.6374 14.4981 14.5099 14.6837 14.2672 14.9538C14.0847 15.1605 14.1177 15.0837 14.0302 15.1799C13.848 15.3837 13.8587 15.5085 13.6529 15.5649C13.5468 15.7175 13.4439 15.8722 13.3445 16.0287C13.3294 16.0173 13.3142 16.0058 13.2991 15.9944C13.2287 16.0874 13.1597 16.181 13.0918 16.2757C13.0872 16.3146 13.0828 16.3534 13.0785 16.3922C12.8468 16.6798 12.8974 16.5287 12.8137 16.5555C12.7658 16.6199 12.7184 16.6849 12.6716 16.7502C12.6724 16.8249 12.6739 16.8993 12.676 16.9734C12.4838 17.2726 12.3036 17.5797 12.1362 17.8931C12.1088 17.9047 12.0814 17.9164 12.054 17.9283C12.0704 17.9376 12.0869 17.9469 12.1034 17.9563C11.8308 18.4937 11.5955 19.0483 11.3988 19.617C11.3689 19.7754 11.73 18.8846 11.7685 18.8226C11.9251 18.4496 12.4019 17.4856 12.4685 17.5219C12.5435 17.2765 12.9616 16.6417 13.1502 16.4881C12.9429 16.7773 12.7474 17.0749 12.5642 17.3797C12.5895 17.3813 12.6148 17.3829 12.6401 17.3845C12.3401 17.7201 12.3107 17.784 12.1832 18.2272C12.1558 18.2142 12.1284 18.2011 12.1011 18.188C12.0522 18.5158 11.6674 18.96 11.783 19.0261C11.7089 19.1777 11.6376 19.3312 11.5691 19.4866C11.4705 19.8381 11.7092 19.3245 11.2733 20.676C11.2457 20.7702 11.2183 20.7421 11.1849 20.8856C11.1763 20.927 11.1597 21.1745 11.0687 21.629C11.0547 21.7001 11.0254 21.7003 11.0087 21.7741C10.9687 21.945 10.9763 22.2965 10.907 22.1273C10.7884 22.8101 10.9048 22.5362 10.9106 22.7514C10.9171 22.8945 10.8651 22.8612 10.8673 22.9852C10.8731 23.1386 10.9264 23.0316 10.8763 23.6387C10.8747 23.5701 10.8736 23.5017 10.873 23.4334C10.8564 23.467 10.8399 23.5007 10.8235 23.5346C10.848 23.8845 10.7985 23.8516 10.8814 24.0173C10.8796 24.0292 10.8779 24.0411 10.8763 24.053C10.8763 24.053 10.8763 24.053 10.8763 24.053C10.844 24.2935 10.8453 24.5081 10.8706 24.838C10.9348 25.5104 10.9878 25.154 10.9625 25.9315C10.9971 26.0517 11.0336 26.1728 11.0717 26.2922C11.0719 26.4995 10.9965 26.3453 11.0456 26.6472C11.0856 26.3955 11.1824 27.0344 11.2893 27.1195C11.2735 27.135 11.2577 27.1505 11.242 27.166C11.2581 27.2321 11.2746 27.2975 11.2918 27.3636C11.3066 27.36 11.3214 27.3563 11.3362 27.3527C11.348 27.4432 11.3607 27.5335 11.3744 27.6237C11.4075 27.6851 11.441 27.7461 11.4749 27.8066C11.4763 27.9222 11.4796 28.0389 11.4845 28.1557C11.5045 28.2234 11.525 28.291 11.546 28.3583C11.5601 28.3298 11.5744 28.3014 11.5886 28.273C11.6106 28.3609 11.6334 28.4484 11.6572 28.5358C11.657 28.4243 11.7179 28.4723 11.8168 28.7343C11.9011 28.9491 11.7286 28.7377 11.9501 29.1849C11.9672 29.2153 12.0364 29.2537 12.2442 29.6725C12.5021 30.1721 12.3469 29.9447 12.3904 30.0351C12.3993 30.0529 12.503 30.1921 12.5846 30.3308C12.6308 30.4096 12.6549 30.497 12.6609 30.5075C12.6899 30.5559 12.7256 30.5542 12.766 30.6207C12.868 30.7897 12.9957 31.0239 13.104 31.1848C13.1531 31.2581 13.2151 31.3161 13.2375 31.3484C13.272 31.3987 13.2924 31.4788 13.3282 31.5292C13.4597 31.7169 13.7439 31.9328 13.7056 32.0975C13.9345 32.1952 14.119 32.6383 14.1603 32.5592C14.5033 33.0443 15.7285 34.0168 15.6159 34.08C15.9472 34.2006 15.8712 34.2455 15.982 34.3307C16.1064 34.4243 16.0563 34.3571 16.1541 34.4326C16.3828 34.6077 16.6032 34.7747 16.8429 34.9325C16.7948 34.9235 16.7468 34.9143 16.6987 34.9047C16.9479 35.0766 16.8842 34.9837 17.1497 35.1397C17.6421 35.4181 17.4214 35.3234 17.4686 35.4094C17.4714 35.3603 18.0546 35.6857 18.115 35.7179C18.15 35.7389 17.9612 35.717 18.3401 35.8787C18.3279 35.8519 18.3159 35.8252 18.304 35.7984C18.4592 35.9053 18.9381 36.079 19.015 36.1149C19.0494 36.1324 19.1909 36.3546 19.4162 36.3089C19.4316 36.3348 19.4472 36.3607 19.4626 36.3865C19.6728 36.4389 19.8844 36.4862 20.0967 36.528C20.1193 36.5707 20.1422 36.6133 20.1654 36.6559C20.2311 36.6756 20.2969 36.6949 20.363 36.7136C20.3274 36.6721 20.2922 36.6304 20.2574 36.5886C20.6583 36.7237 21.1699 36.7887 21.235 36.9054C21.3283 36.9058 21.4199 36.9048 21.5122 36.903C21.5636 36.9472 21.6155 36.9912 21.6681 37.0349C22.0867 37.0966 22.0957 37.0719 22.3854 37.0724C22.3711 37.0973 22.3568 37.1223 22.3424 37.1472C22.5597 37.1372 22.9454 37.1395 23.2528 37.15C23.3975 37.1562 23.6457 37.1999 23.6806 37.1969C23.7026 37.1952 23.8471 37.1401 23.9597 37.1285C23.9597 37.1285 23.9597 37.1285 23.9597 37.1285C24.0261 37.1217 24.0816 37.1304 24.0959 37.1763C24.5975 37.1143 24.8186 37.1508 25.0225 37.1345C25.1544 37.1227 25.2108 37.0878 25.359 37.0692C25.5715 37.0424 25.7857 37.0277 25.9068 37.0074C25.9759 36.9958 25.9848 36.9649 26.0325 36.9564C26.2583 36.9147 26.1309 36.9669 26.3685 36.9221C26.3907 36.9176 26.5562 36.851 26.7521 36.8129C26.8615 36.7926 27.1503 36.764 27.1748 36.757C27.2836 36.7277 27.1766 36.677 27.5725 36.6622C27.5575 36.6507 27.5426 36.6391 27.5278 36.6276C27.9727 36.4588 28.0632 36.4928 28.1566 36.4678C28.1685 36.4643 28.2698 36.4021 28.3361 36.3822C28.4483 36.3488 28.5051 36.3656 28.5302 36.358C28.6188 36.3317 28.9007 36.2055 29.0997 36.1574C29.0242 36.0828 29.6471 35.7635 29.8372 35.7909C29.9392 35.7143 30.0396 35.6365 30.1385 35.5574C30.197 35.5474 30.2559 35.5369 30.3147 35.5259C30.3357 35.4927 30.3564 35.4593 30.377 35.426C30.5559 35.3726 30.7338 35.3155 30.912 35.2537C30.8999 35.2121 30.8877 35.1705 30.8754 35.129C30.9211 35.106 30.9666 35.0828 31.0121 35.0592C31.0635 35.0656 31.115 35.0717 31.1667 35.0775C31.217 35.037 31.2668 34.9962 31.3163 34.9551C31.316 34.9263 31.3157 34.8975 31.3152 34.8688C31.5788 34.6502 31.5768 34.9431 31.9778 34.3862C32.0697 34.3388 32.1612 34.2902 32.2522 34.2404C32.2833 34.0966 32.4835 34.0016 32.6071 33.8784C32.6939 33.7917 32.6647 33.7693 32.7869 33.6565C32.9084 33.5431 32.9276 33.572 32.9373 33.5633C33.0377 33.4714 33.0894 33.3778 33.1643 33.312C33.1755 33.302 33.2318 33.3053 33.3229 33.2162C33.4138 33.1267 33.4352 33.0412 33.5697 32.9082C33.6384 32.8397 33.6831 32.8424 33.743 32.7801C34.0305 32.4814 34.1471 32.0521 34.499 31.9322C34.5217 31.861 34.7392 31.3983 34.8587 31.2215C35.0478 30.9466 35.0121 31.076 35.0896 30.9675C35.1003 30.9516 35.1444 30.8587 35.2881 30.6177C35.3137 30.5745 35.2876 30.5729 35.291 30.5665C35.4577 30.2852 35.7646 29.7285 35.9112 29.4004C35.9245 29.3708 35.9349 29.1929 36.1224 28.9627C36.2246 28.5508 36.6131 27.8387 36.6513 27.2691C36.6682 27.1941 36.7126 27.1085 36.7197 27.0749C36.7764 26.7847 36.6944 26.8802 36.9134 26.2427C36.8686 26.2903 36.8643 26.1301 36.8978 25.9143C36.9462 25.5879 36.9824 25.8293 37.0091 25.5635C36.9903 25.5613 36.9715 25.5592 36.9527 25.557C37.0664 24.9537 36.9935 24.8237 37.0067 24.2123C37.0072 24.1631 37.0096 24.1086 37.0129 24.053C37.0129 24.053 37.0129 24.053 37.0129 24.053C37.0244 23.8584 37.0436 23.6514 37.0422 23.6104C37.042 23.5896 36.9859 23.3521 36.9837 23.3285C36.9751 23.1987 36.991 23.1242 36.9825 23.0125C36.9559 22.6445 36.8357 22.2137 36.9533 22.2789C36.917 22.1807 36.8799 22.0846 36.8414 21.9871C36.8942 21.5868 36.6767 21.3373 36.7689 21.2351C36.7316 21.1726 36.6939 21.1107 36.6557 21.0493C36.291 19.4468 35.6157 17.914 34.6777 16.5565C34.6146 16.5204 34.194 15.9392 34.1714 15.9096C34.0846 15.7621 34.2601 15.8507 34.0242 15.5947C33.9731 15.5873 33.9221 15.5803 33.8712 15.5737C33.5783 15.2541 33.7404 15.3892 33.6433 15.2457C33.5918 15.1955 33.5879 15.2305 33.5206 15.1608C33.1624 14.7759 32.3671 14.0476 31.9039 13.7078C31.8118 13.6378 31.8405 13.6287 31.8118 13.6069C31.7326 13.5474 31.5573 13.4568 31.3946 13.3439C30.3996 12.6266 28.83 11.8521 27.6438 11.4986C27.5638 11.4734 27.5619 11.4421 27.5076 11.4252C27.4324 11.4018 27.2556 11.3796 27.1765 11.3573C27.1018 11.3362 27.0588 11.3024 26.9781 11.2806C26.6079 11.1794 26.097 11.1233 25.7004 11.0053C25.6687 10.9936 25.2506 10.8262 25.2415 10.8192C25.1871 10.7684 25.5845 10.7277 24.9508 10.6062C25.5264 10.598 25.3671 10.4644 24.6094 10.3695C24.9916 10.3741 25.3706 10.3941 25.7518 10.4304C25.7539 10.4181 25.7561 10.4058 25.7582 10.3935C25.4198 10.2882 25.076 10.2304 24.5429 10.2013C24.56 10.1904 24.577 10.1796 24.5941 10.1688C25.07 10.1305 25.6398 10.1798 26.0091 10.1561C25.4915 10.0215 24.9606 9.9159 24.4244 9.8405C24.4516 9.83226 24.4788 9.82411 24.506 9.81603C24.7647 9.79912 25.3322 9.82883 25.549 9.83348C26.3812 9.84422 24.8355 9.695 25.0925 9.67594C25.9674 9.74569 26.8355 9.89516 27.6826 10.1229C27.7473 10.0054 24.4025 9.41105 24.4234 9.38891C24.7025 9.3899 24.9858 9.39902 25.2655 9.41601C25.1435 9.37621 25.0204 9.33791 24.8961 9.30114C24.9314 9.29417 24.9668 9.28732 25.0021 9.28059C25.4796 9.29125 25.959 9.32507 26.4363 9.38229C24.9878 9.17535 24.3165 9.19235 23.9597 8.95531C24.0001 8.94951 24.0405 8.94386 24.0809 8.93838C24.4021 9.06753 25.9025 9.11534 26.697 9.2544C26.5439 9.17915 25.8393 9.10743 25.6928 9.06987C25.6514 9.05783 25.8022 9.04612 25.7059 9.02001C25.456 8.9407 24.3576 8.83013 24.5189 8.79488C24.6229 8.74377 26.4077 8.87337 26.7495 8.96924C25.953 8.76684 25.1097 8.6655 24.2854 8.58269C24.8072 8.50545 25.2863 8.40517 26.2468 8.5344C26.5529 8.50587 24.5092 8.22968 24.46 8.23426C24.8156 8.21684 25.179 8.21177 25.5373 8.21856C25.2358 8.19645 24.9296 8.18268 24.6273 8.17779C24.6269 8.16827 24.6264 8.15875 24.6259 8.14922C25.4144 8.13993 26.1458 8.13483 27.0405 8.31196C27.0227 8.25554 26.4825 8.1627 26.2215 8.12836ZM15.2378 14.1103C15.2763 14.1314 15.0666 14.3079 14.9538 14.4135C14.9759 14.4032 14.998 14.3929 15.0202 14.3828C14.7705 14.5971 14.3328 15.0284 14.3785 15.1015C14.227 15.2796 14.2456 15.1566 14.1886 15.207C14.1658 15.2268 13.9926 15.4811 13.7985 15.6386C13.7614 15.6836 13.7247 15.7289 13.6882 15.7744C13.7018 15.7998 13.7154 15.8252 13.729 15.8505C13.6533 15.8934 13.5779 15.9372 13.5026 15.9819C14.0185 15.3052 14.6002 14.6776 15.2368 14.1111C15.2371 14.1108 15.2375 14.1106 15.2378 14.1103ZM11.0522 21.3154C10.9714 21.6135 10.8746 22.0801 10.9616 21.9965C10.9881 21.8027 11.0189 21.6102 11.0538 21.419C11.053 21.3848 11.0526 21.3499 11.0522 21.3154ZM30.9171 35.3304C31.1757 35.2535 31.3445 35.0724 31.679 34.8499C31.6697 34.8379 31.6605 34.8259 31.6513 34.814C31.5397 34.9402 31.1676 35.1651 30.9171 35.3304ZM22.0961 10.6814C22.1544 10.679 22.2128 10.677 22.2713 10.6754C22.047 10.7862 21.9999 10.7347 21.736 10.7854C21.7202 10.7885 21.7287 10.8059 21.7232 10.807C21.659 10.819 21.5957 10.8074 21.5377 10.8183C21.4257 10.8396 21.3401 10.8783 21.1424 10.9193C20.99 10.9515 20.9809 10.9177 20.9275 10.9307C20.881 10.941 20.4574 11.1445 20.1628 11.1896C19.5873 11.2456 21.9111 10.6439 22.0961 10.6814ZM23.7764 10.6222C23.7203 10.6233 23.6642 10.6247 23.6082 10.6265C23.7755 10.5681 23.4354 10.5822 23.186 10.5985C23.1919 10.5437 23.7199 10.5435 23.9597 10.531C23.8981 10.561 23.837 10.5914 23.7764 10.6222ZM16.9963 12.433C17.1831 12.3154 17.1849 12.3917 17.1867 12.4129C17.1264 12.4481 17.0664 12.4837 17.0067 12.5198C17.0032 12.4909 16.9997 12.4619 16.9963 12.433ZM18.4579 11.6473C18.4121 11.7145 17.9879 11.9334 17.7894 12.0426C17.7807 12.0472 17.8246 11.9965 17.6836 12.0726C17.6398 12.094 17.27 12.4006 17.3115 12.2625C17.683 12.0395 18.0656 11.8341 18.4573 11.6476C18.4575 11.6475 18.4577 11.6474 18.4579 11.6473ZM18.9138 11.4831C18.8353 11.5297 18.7577 11.5769 18.6804 11.625C18.6294 11.624 18.5783 11.6233 18.5271 11.6229C18.6193 11.5768 18.712 11.5317 18.805 11.4878C18.8413 11.4861 18.8776 11.4845 18.9138 11.4831ZM34.5137 15.4743C34.5097 15.5047 34.5056 15.5352 34.5013 15.5655C34.5425 15.6358 34.8613 15.8906 34.7997 15.7797C34.7058 15.6763 34.6105 15.5745 34.5137 15.4743ZM33.4101 14.2074C33.3581 14.1418 33.3054 14.0767 33.2521 14.0119C33.1562 13.9748 33.0602 13.9389 32.9642 13.9044C33.2563 14.1959 33.5426 14.5268 33.5719 14.3979C33.6389 14.4647 33.7053 14.5321 33.771 14.6003C33.682 14.5753 33.6803 14.5929 33.828 14.7919C33.9118 14.7872 34.0625 14.9957 34.2632 15.208C34.1275 15.0444 33.988 14.8839 33.8447 14.7266C33.8529 14.7188 33.8612 14.711 33.8694 14.7032C34.1898 15.0551 33.8434 14.5683 33.589 14.3825C33.5823 14.3546 33.5755 14.3267 33.5687 14.2987C33.5159 14.2678 33.4631 14.2374 33.4101 14.2074ZM22.0067 37.5384C22.0632 37.558 22.12 37.5773 22.177 37.5962C22.4222 37.4772 21.9432 37.5621 21.6363 37.3877C21.7284 37.4956 21.2336 37.4015 21.2048 37.3993C21.2555 37.4404 21.3065 37.4812 21.3581 37.5217C21.574 37.5324 21.7921 37.5382 22.0067 37.5384ZM23.6679 37.7766C23.5759 37.7408 23.7305 37.7269 23.9597 37.7174C23.9597 37.7174 23.9597 37.7174 23.9597 37.7174C24.2399 37.7069 24.623 37.6949 24.8103 37.6913C24.8927 37.6905 25.042 37.7203 25.1008 37.7101C25.1355 37.6922 25.1699 37.6741 25.2043 37.6559C25.2506 37.7073 25.903 37.5756 26.1519 37.5021C26.1791 37.5169 26.2063 37.5316 26.2336 37.5462C26.326 37.5231 26.4179 37.4991 26.5093 37.4742C26.5012 37.495 26.4929 37.5157 26.4847 37.5364C26.5511 37.501 26.617 37.4651 26.6823 37.4287C26.9522 37.3468 26.8044 37.4832 27.0043 37.4061C27.2251 37.3189 26.8367 37.3451 26.8356 37.3035C26.6526 37.3553 26.2353 37.4559 26.0435 37.4848C25.9339 37.5007 26.0501 37.4169 25.5885 37.5582C25.4826 37.5516 25.3755 37.5439 25.271 37.5347C25.0846 37.5831 24.8956 37.6278 24.7043 37.6685C24.6668 37.6441 24.63 37.6194 24.5933 37.5946C24.5738 37.5932 24.1327 37.6655 24.1559 37.6835C24.1044 37.6699 24.0378 37.6596 23.9597 37.6511C23.9597 37.6511 23.9597 37.6511 23.9597 37.6511C23.7624 37.6299 23.4951 37.6198 23.2186 37.6029C23.1804 37.6153 23.1421 37.6275 23.1037 37.6395C23.482 37.6294 23.2228 37.6614 23.3336 37.6946C23.3973 37.7137 23.5949 37.7515 23.6679 37.7766ZM36.0127 17.6224C35.6497 17.0998 35.8936 17.4129 35.5391 16.8273C35.5355 16.8859 35.5315 16.9444 35.5271 17.0027C35.7574 17.2536 35.9823 17.761 36.013 17.6229C36.0129 17.6228 36.0128 17.6226 36.0127 17.6224ZM31.497 12.7974C31.8054 12.9834 31.6889 12.8344 32.0696 13.0902C32.0697 13.0903 32.0699 13.0905 32.0701 13.0906C31.882 12.9464 31.6897 12.8068 31.4942 12.6725C31.4953 12.7142 31.4963 12.7558 31.497 12.7974ZM35.4006 31.3834C35.1998 31.6644 35.2589 31.6231 35.0367 31.8499C34.8174 32.266 35.0403 31.9408 35.088 31.9742C35.1363 31.8769 35.1835 31.7791 35.2293 31.681C35.4193 31.4962 35.3052 31.7158 35.3092 31.7189C35.3093 31.7187 35.3095 31.7185 35.3096 31.7184C35.3241 31.7282 35.3226 31.7374 35.3871 31.66C35.3927 31.5675 35.3972 31.4753 35.4006 31.3834ZM34.5916 32.6276C34.6358 32.5099 34.6308 32.4394 34.4153 32.6642C34.4151 32.6643 34.415 32.6645 34.4148 32.6647C34.4663 32.7396 34.2201 32.9237 34.134 33.0285C34.1175 33.0615 34.1008 33.0944 34.0839 33.1273C34.257 32.9656 34.4265 32.7988 34.5916 32.6276ZM30.6496 36.055C30.6022 35.9716 30.8253 35.8368 30.4612 35.9384C30.3994 35.9743 30.3378 36.0094 30.2756 36.0441C30.2441 36.0845 30.2123 36.1248 30.1801 36.165C29.2898 36.4024 29.1803 36.8084 30.4995 36.0083C30.4997 36.0082 30.4999 36.008 30.5 36.0078C30.5497 36.0238 30.5995 36.0396 30.6496 36.055ZM32.0042 35.1806C31.9841 35.1331 31.9639 35.0856 31.9436 35.0381C32.1773 35.0174 32.316 34.7707 32.6734 34.5865C32.6912 34.5519 32.7088 34.5173 32.7262 34.4826C32.8736 34.429 33.924 33.4288 33.6408 33.5908C33.522 33.6647 33.3409 33.9036 33.321 33.9202C33.2554 33.9772 33.1436 34.0227 33.0372 34.1222C32.9758 34.1798 32.8763 34.3361 32.7441 34.4476C32.4489 34.7013 31.8137 35.017 31.4623 35.4C31.4235 35.4076 31.3847 35.4149 31.3459 35.422C31.0353 35.6318 31.1654 35.6072 30.837 35.7376C30.7601 36.0814 32.0151 34.9674 31.833 35.3125C31.8331 35.3124 31.8333 35.3123 31.8335 35.3122C31.8908 35.2687 31.9477 35.2249 32.0042 35.1806ZM37.3921 26.5408C37.4402 26.5265 37.4463 26.0817 37.5308 26.1997C37.5178 26.0518 37.5022 25.9058 37.4844 25.7595C37.4748 25.7594 37.4651 25.7593 37.4555 25.7591C37.4454 25.9008 37.4332 26.0412 37.4186 26.1827C37.4035 26.1809 37.3885 26.1791 37.3734 26.1773C37.403 26.3966 37.1967 27.2555 37.1453 27.2146C37.1565 27.2655 37.1674 27.3164 37.178 27.3675C37.0152 27.7605 36.9759 28.1264 36.7681 28.5402C36.7741 28.5798 36.78 28.6195 36.7856 28.6593C36.7635 28.6759 36.7414 28.6925 36.7193 28.7089C36.6602 28.8652 36.5983 29.0202 36.5336 29.1737C36.3827 29.7013 36.8591 28.7491 36.8848 28.619C36.8893 28.6024 36.8517 28.5919 36.8807 28.4889C36.942 28.3093 37.275 27.2974 37.3081 26.9667C37.3341 26.9695 37.3602 26.9722 37.3863 26.9749C37.3907 26.8291 37.3925 26.6852 37.3921 26.5408ZM28.7616 36.8192C28.7298 36.8029 28.6981 36.7864 28.6665 36.7698C28.2904 36.9369 28.0332 36.9892 28.1614 37.0412C28.1616 37.0411 28.1618 37.041 28.162 37.041C28.3642 36.9716 28.5631 36.898 28.7616 36.8192ZM11.0504 19.7207C10.9973 19.7137 10.9139 19.8972 10.8774 20.1524C10.8956 20.145 10.9138 20.1376 10.932 20.1303C10.9279 19.9909 11.0485 19.8531 11.1751 19.4657C11.1502 19.4567 11.1252 19.4477 11.1003 19.4388C11.0826 19.5326 11.066 19.6266 11.0504 19.7207ZM29.0982 36.6998C29.2275 36.6821 29.5145 36.4539 29.2993 36.5419C29.1352 36.6083 29.0293 36.7094 29.0982 36.6998ZM30.3086 12.0272C30.3883 12.0756 30.4675 12.1248 30.5463 12.175C30.5997 12.1788 30.6531 12.183 30.7066 12.1876C30.7065 12.1875 30.7063 12.1874 30.7061 12.1873C30.5742 12.1317 30.4414 12.0782 30.3086 12.0272ZM35.991 30.361C35.8472 30.6417 35.6932 30.9182 35.5299 31.1886C35.5407 31.1991 35.5516 31.2095 35.5624 31.2199C35.683 30.9217 35.7937 30.8399 35.834 30.7771C35.8338 30.7774 35.8337 30.7777 35.8335 30.778C35.9612 30.5765 36.0752 30.3807 36.1924 30.1868C36.1256 30.2458 36.0585 30.3039 35.991 30.361ZM36.5409 29.4203C36.4228 29.4284 36.3915 29.4885 36.2493 29.9586C36.2692 29.9468 36.2891 29.9349 36.3089 29.923C36.4104 29.6915 36.4465 29.5462 36.4783 29.6089C36.4996 29.5462 36.5205 29.4833 36.5409 29.4203ZM33.7781 33.5231C33.8442 33.5053 34.1353 33.1407 34.1045 33.1476C34.095 33.153 33.654 33.5613 33.7781 33.5231ZM12.5669 16.5573C12.5017 16.6424 12.4375 16.7283 12.3742 16.815C12.4403 16.6883 12.5084 16.5625 12.5785 16.4377C12.5744 16.4776 12.5706 16.5175 12.5669 16.5573ZM13.1383 15.5148C13.1967 15.4636 13.1133 15.7136 13.4195 15.3745C13.2099 15.6318 13.0094 15.8971 12.8192 16.1688C12.8969 16.0331 12.9769 15.8987 13.0596 15.7652C13.0217 15.7707 12.9839 15.7763 12.9459 15.782C13.009 15.6922 13.0731 15.6031 13.1383 15.5148ZM13.4176 15.2791C13.2435 15.3694 13.8618 14.6464 13.9353 14.5936C13.9504 14.5806 14.0539 14.5499 14.0861 14.5333C13.987 14.6362 13.8895 14.7406 13.7936 14.8465C13.8382 14.8225 13.883 14.7987 13.9277 14.7753C13.8188 14.9015 13.7124 15.0295 13.6083 15.1594C13.6418 15.0944 13.6759 15.0296 13.7105 14.9649C13.6113 15.068 13.5137 15.1728 13.4176 15.2791ZM11.4351 18.4969C11.4853 18.3885 11.5367 18.2809 11.5896 18.1741C11.5554 18.1842 11.5212 18.1944 11.4871 18.2048C11.4566 18.2698 11.4265 18.335 11.397 18.4005C11.4096 18.4327 11.4223 18.4649 11.4351 18.4969ZM12.5869 16.3542C12.5952 16.5675 12.1031 16.8153 12.4944 16.4055C12.5342 16.3647 12.586 16.3336 12.5869 16.3542ZM14.194 14.3484C14.3944 14.0192 14.4764 14.2246 14.1866 14.4301C14.172 14.4405 14.1791 14.3732 14.194 14.3484ZM16.3517 12.573C16.3778 12.5571 16.4561 12.582 16.6661 12.3749C16.7105 12.3561 16.755 12.3374 16.7996 12.3191C16.7153 12.3965 15.9402 12.943 16.0121 12.8183C16.1305 12.7332 16.2249 12.6548 16.3517 12.573ZM15.4503 12.914C15.3357 13.0041 15.2225 13.0958 15.1108 13.1893C15.1612 13.1751 15.2115 13.1612 15.2619 13.1477C15.2097 13.1966 15.1579 13.2459 15.1066 13.2956C14.9897 13.3453 14.8731 13.3969 14.7569 13.4503C14.9927 13.2378 15.2356 13.0333 15.4856 12.837C15.4737 12.8626 15.462 12.8883 15.4503 12.914ZM12.6919 15.6286C12.8817 15.4193 13.0715 15.1304 13.376 14.7889C13.3762 14.7888 13.3764 14.7887 13.3766 14.7885C13.3919 14.7716 13.44 14.7601 13.4895 14.7063C13.5214 14.6516 14.3658 13.7518 14.3369 13.8609C14.0228 14.2198 13.8562 14.3056 13.8551 14.4618C13.8227 14.4628 13.7903 14.464 13.7579 14.4653C13.4171 14.7736 13.3931 14.9276 13.2508 15.141C13.2382 15.1293 13.2257 15.1175 13.2132 15.1058C13.1022 15.2362 12.9938 15.3686 12.8876 15.5031C12.9113 15.4909 12.935 15.4787 12.9587 15.4667C12.9215 15.5143 12.8846 15.5622 12.8479 15.6103C12.7183 15.6967 12.5973 15.8416 12.6919 15.6286ZM16.0006 12.5481C16.0303 12.3538 17.1948 11.7232 17.7279 11.4497C17.4797 11.6583 17.0274 11.8431 16.7327 12.0215C16.1663 12.3694 16.5828 12.1685 16.4982 12.2455C16.4568 12.2827 16.0962 12.4189 16.0006 12.5481ZM12.1255 16.4852C12.3137 16.2127 12.3951 16.0423 12.6013 15.8376C12.5949 15.8626 12.5886 15.8876 12.5824 15.9126C12.5135 15.9832 12.0503 16.6348 12.1255 16.4852ZM18.5424 11.115C17.936 11.3265 18.2747 11.3082 17.9358 11.3674C18.1309 11.2684 18.329 11.1737 18.5292 11.0837C18.5336 11.0941 18.538 11.1046 18.5424 11.115ZM29.958 36.8572C30.2048 36.7453 30.4869 36.627 30.6063 36.5069C30.4404 36.5871 30.2729 36.664 30.1039 36.7376C30.0554 36.7778 30.007 36.8176 29.958 36.8572ZM22.3582 38.5815C22.4216 38.6009 22.6759 38.5902 22.7025 38.5919C22.7518 38.5961 22.737 38.612 22.7373 38.6165C23.0613 38.6384 22.7666 38.5633 23.0066 38.5685C23.0484 38.5716 23.6067 38.6244 23.8376 38.6209C23.8784 38.6209 23.9192 38.6207 23.9597 38.6205C23.9597 38.6205 23.9597 38.6205 23.9597 38.6205C24.2705 38.6192 24.5581 38.61 24.6738 38.6034C24.8973 38.5919 25.3033 38.5236 25.6655 38.4782C25.8146 38.4597 25.8707 38.4845 26.0201 38.4629C26.9882 38.3528 28.8186 37.7848 29.6056 37.4407C29.8034 37.3628 30.0052 37.3167 30.1059 37.2659C30.1799 37.2146 30.2531 37.1629 30.3262 37.1102C30.6319 37.1122 30.6597 36.9611 30.9108 36.8107C31.0706 36.714 31.1659 36.7053 31.1878 36.6928C31.3318 36.6091 31.3923 36.5504 31.5021 36.4801C31.6257 36.4013 31.8131 36.3036 31.8552 36.272C31.88 36.2512 31.7692 36.2683 32.2372 35.9489C32.7113 35.6194 33.1637 35.2702 33.6043 34.8811C33.35 34.889 33.2975 35.0818 33.1157 35.2389C33.067 35.2807 33.0822 35.235 33.0396 35.271C32.9199 35.3731 32.6965 35.5781 32.5875 35.6507C32.4702 35.7293 32.4739 35.6526 32.3424 35.7748C32.3357 35.7809 32.3734 35.7845 32.3416 35.8123C32.0193 36.089 31.8811 36.1329 31.4258 36.4112C31.1446 36.6323 29.2081 37.5715 29.1186 37.5483C28.742 37.6298 30.8057 36.7323 31.0173 36.5657C31.0987 36.5223 31.0281 36.5939 31.1039 36.5568C31.1363 36.5408 31.3875 36.3364 31.6512 36.1626C31.9729 35.9577 32.6192 35.5393 32.9014 35.3067C35.3487 33.3489 37.1491 30.6358 37.9167 27.5886C37.9328 27.5238 37.9246 27.4315 37.9727 27.2194C38.2047 26.1901 38.325 25.1251 38.3271 24.053C38.3271 24.053 38.3271 24.053 38.3271 24.053C38.3472 20.9998 37.3327 17.9047 35.4931 15.4735C34.9538 14.7555 34.336 14.113 33.687 13.4834C33.5889 13.4241 33.4905 13.3662 33.3915 13.3096C33.6205 13.4829 33.9624 13.8837 33.9941 13.9185C34.006 13.9308 34.1014 13.9883 34.222 14.1147C34.3913 14.2926 34.4467 14.3879 34.4605 14.4025C34.5026 14.4485 34.4925 14.4023 34.5326 14.4465C34.8302 14.7767 35.0552 15.0377 35.3046 15.361C35.5845 15.7283 35.6799 15.9457 35.906 16.1981C35.9112 16.2403 35.9161 16.2824 35.9208 16.3245C36.1406 16.4799 36.8729 17.7913 37.0891 18.3585C37.1636 18.535 37.1191 18.517 37.1439 18.5761C37.1583 18.6144 37.1986 18.5797 37.3689 19.051C37.4523 19.2889 37.4426 19.3615 37.4843 19.4804C37.5067 19.5451 37.5331 19.5245 37.5639 19.6183C37.7391 20.1607 37.8477 20.6133 37.9558 21.1612C37.9854 21.3148 37.9593 21.3215 37.9663 21.3557C37.9914 21.4813 38.077 21.6957 38.1233 22.0206C38.2079 22.5469 38.2754 23.5948 38.2456 24.053C38.2456 24.053 38.2456 24.053 38.2456 24.053C38.2453 24.061 38.2449 24.0688 38.2445 24.0764C38.2412 24.1417 38.2092 24.1954 38.2091 24.2431C38.2089 24.3154 38.241 24.3444 38.241 24.3571C38.2354 24.5989 38.2089 24.4526 38.2107 24.6141C38.2112 24.7011 38.2454 24.7932 38.2366 24.9972C38.2236 25.2657 38.1821 25.2091 38.1773 25.3208C38.1769 25.3326 38.2077 25.3389 38.1983 25.4482C38.1641 25.8655 38.0818 26.4664 38.0025 26.8533C37.9804 26.9641 37.9428 27.0436 37.908 27.1978C37.8687 27.5158 37.3268 29.2478 37.2334 29.3721C37.2263 29.386 37.2442 29.2204 37.1495 29.458C37.1388 29.5339 37.1277 29.6096 37.1156 29.6859C37.0384 29.7889 36.9601 29.8903 36.8806 29.9902C36.9825 30.0306 36.6715 30.6999 36.5763 30.6408C36.5354 30.7096 36.494 30.7779 36.452 30.8459C36.4366 31.0277 36.3601 31.1124 36.2321 31.4118C36.1867 31.4432 36.1411 31.4744 36.0954 31.5053C36.1017 31.524 36.1079 31.5427 36.1141 31.5615C35.9545 31.6648 35.8696 31.9445 35.8502 31.9735C35.7784 32.0842 35.7046 32.1541 35.6698 32.2051C35.5413 32.3968 35.2647 32.8156 35.0828 33.0163C35.0743 33.0257 35.0549 32.9941 35.0032 33.0507C34.9096 33.1524 34.9404 33.1965 34.7749 33.2977C34.7623 33.3358 34.7494 33.3739 34.7364 33.412C34.7045 33.4367 34.6726 33.4613 34.6405 33.4857C34.4891 33.6631 34.3333 33.8369 34.1732 34.0068C34.2775 33.813 34.0863 33.9662 33.9557 34.1608C33.9114 34.2268 33.986 34.2041 33.9714 34.2262C33.9573 34.2635 33.1696 34.9563 33.0955 34.9751C33.0649 35.0157 33.034 35.0561 33.0029 35.0964C32.969 35.0946 32.9352 35.0928 32.9014 35.0908C32.8853 35.1141 32.8691 35.1374 32.8528 35.1607C32.6196 35.3028 32.103 35.7916 31.9892 35.8553C31.93 35.8902 31.9277 35.7776 31.6602 35.9645C31.6652 35.9931 31.6702 36.0217 31.675 36.0503C31.6139 36.0943 31.5524 36.1378 31.4904 36.1808C31.3691 36.254 31.169 36.3188 31.1474 36.2946C31.1192 36.3332 31.0908 36.3717 31.062 36.4102C30.9299 36.4187 30.3893 36.7364 30.1753 36.8792C30.1002 36.8949 30.0256 36.9098 29.9507 36.9241C29.8704 36.9866 29.789 37.0484 29.7068 37.1094C29.4974 37.2083 29.7065 37.076 29.66 37.0928C29.5632 37.1312 29.0954 37.389 29.0983 37.3007C29.0309 37.3267 28.9632 37.3521 28.8954 37.3771C28.8683 37.4113 28.8412 37.4453 28.814 37.4793C28.6708 37.4471 28.4785 37.5486 28.0494 37.6489C28.0193 37.6767 27.9891 37.7044 27.9586 37.7321C27.8207 37.7457 27.6826 37.7573 27.5446 37.7668C27.5251 37.8027 27.5054 37.8385 27.4857 37.8743C27.4294 37.893 27.3729 37.9114 27.3163 37.9295C27.184 37.8931 26.9888 38.0106 26.8744 38.0059C26.7087 37.9982 26.8221 37.9292 27.1093 37.8552C27.0776 37.8189 26.219 38.0105 26.0162 38.0356C26.0308 38.0431 26.0454 38.0505 26.0601 38.0579C26.265 38.0199 26.4698 37.9772 26.6718 37.9302C26.8672 38.0173 26.3034 38.0934 26.0467 38.1435C26.0234 38.1481 25.8967 38.2151 25.6334 38.2418C25.5304 38.2536 25.1293 38.2236 25.0536 38.2241C24.4408 38.2321 24.8942 38.3063 24.294 38.2428C24.3907 38.2897 24.2112 38.2763 23.9597 38.2699C23.9597 38.2699 23.9597 38.2699 23.9597 38.2699C23.8828 38.2679 23.7994 38.2666 23.7153 38.2681C23.6539 38.2716 23.1371 38.304 23.1002 38.3009C22.8813 38.2952 23.1222 38.2548 22.8066 38.2463C22.7677 38.2583 22.7286 38.2702 22.6895 38.2819C22.6163 38.2754 22.5437 38.2685 22.4702 38.2609C22.0403 38.079 21.9297 38.1582 21.7701 38.1478C21.7058 38.1429 21.7928 38.1215 21.6275 38.1023C21.5654 38.0947 21.4918 38.1125 21.326 38.0839C20.8064 37.9897 20.6645 37.8272 20.1636 37.828C20.0968 37.79 20.0305 37.7516 19.9647 37.7128C19.9104 37.7205 19.8559 37.7279 19.8014 37.735C19.4543 37.5585 19.5666 37.6627 19.4346 37.619C19.0858 37.5069 18.3937 37.2142 18.3572 37.1354C18.016 37.1255 17.7339 36.8338 17.622 36.7825C17.5492 36.7631 17.4766 36.7431 17.404 36.7224C17.3338 36.669 17.2643 36.6149 17.1954 36.5604C17.1736 36.689 16.8375 36.3643 16.8031 36.3399C16.7598 36.3166 16.1514 35.9854 15.9414 35.8352C15.7276 35.6911 15.388 35.3975 15.3575 35.3727C15.3211 35.346 14.9546 35.1048 14.6954 34.8801C14.4458 34.7062 13.2419 33.4051 13.2915 33.5101C13.3572 33.6071 13.4591 33.7384 13.5523 33.8476C13.7982 34.2296 15.7892 35.9413 16.3947 36.2489C17.5261 36.9751 18.825 37.5427 20.1249 37.9115C20.2015 37.9332 20.205 37.9669 20.2711 37.9851C20.3719 38.0134 20.6338 38.0453 20.7334 38.0682C21.1057 38.158 21.56 38.2429 21.7637 38.2737C22.2131 38.3432 22.5255 38.3937 22.8694 38.4233C22.9785 38.4342 23.5247 38.4269 23.9011 38.4421C23.9206 38.4447 23.9402 38.4473 23.9597 38.4498C23.9597 38.4498 23.9597 38.4498 23.9597 38.4498C24.0086 38.4562 24.0574 38.4623 24.1063 38.4682C24.0682 38.4706 24.0179 38.4736 23.9597 38.4766C23.9597 38.4766 23.9597 38.4766 23.9597 38.4766C23.7214 38.49 23.3561 38.4966 23.1665 38.4879C22.8134 38.4726 22.6341 38.4281 22.5057 38.4162C22.3966 38.4081 21.843 38.3697 21.5924 38.326C21.5147 38.3134 21.5044 38.2779 21.4383 38.2664C21.0801 38.2056 20.6109 38.1022 20.2978 38.0527C20.4239 38.0786 19.6536 37.8421 19.6153 37.8242C19.5462 37.8023 19.4616 37.8081 19.3212 37.7608C19.0517 37.6677 19.109 37.6206 18.753 37.5551C18.6775 37.5057 18.6028 37.4557 18.5288 37.4052C18.4869 37.4911 17.5211 36.9322 17.1995 36.8665C17.178 36.8873 18.4787 37.5348 18.5971 37.5633C19.26 37.8461 20.2888 38.1313 20.9706 38.2815C21.1729 38.3331 21.8198 38.4941 21.8692 38.4967C21.9491 38.5066 21.8813 38.4666 21.9159 38.4704C22.6246 38.5392 22.2662 38.5518 22.3582 38.5815ZM13.1023 15.0173C12.9652 15.1764 12.8316 15.3384 12.7015 15.5036C12.6956 15.4799 12.6898 15.4563 12.6841 15.4326C12.7487 15.3603 12.814 15.2888 12.8799 15.218C12.9174 15.153 12.9553 15.0882 12.9938 15.0236C13.03 15.0214 13.0662 15.0193 13.1023 15.0173ZM13.3815 14.5728C13.497 14.4303 13.5333 14.4514 13.5632 14.4217C13.6531 14.3335 13.7163 14.2435 13.802 14.1563C13.7714 14.3229 13.5371 14.5094 13.3815 14.5728ZM11.2271 17.6725C11.2502 17.6366 11.4633 17.4396 11.5332 17.1201C11.6743 16.9297 11.8194 16.7442 11.9691 16.5621C11.7167 16.873 11.4929 17.3795 11.4041 17.5509C11.3696 17.616 11.3353 17.6143 11.3081 17.6668C11.151 17.9704 11.0823 18.3003 10.973 18.2901C11.131 18.008 11.1981 17.7176 11.2271 17.6725ZM12.3141 15.9225C12.3632 15.8903 12.4124 15.8584 12.4618 15.8269C12.3474 15.9864 12.2362 16.1486 12.1287 16.3126C12.1394 16.2562 12.1504 16.1997 12.1619 16.1432C12.2119 16.0692 12.2627 15.9956 12.3141 15.9225ZM11.1587 30.3747C11.1046 30.2648 11.0521 30.1547 11.001 30.0437C10.9893 30.0565 11.0487 30.1831 11.0615 30.2341C11.0614 30.2339 11.0613 30.2337 11.0612 30.2335C11.0753 30.2905 11.046 30.2774 11.0841 30.3756C11.1089 30.3753 11.1338 30.3751 11.1587 30.3747ZM33.3239 13.1607C33.1891 12.9987 31.6433 11.8828 31.7349 12.0406C31.7892 12.1061 32.338 12.4518 32.4889 12.5699C32.6995 12.7211 33.1959 13.2091 33.3239 13.1607ZM30.5394 11.2685C30.4896 11.2956 31.5173 11.8852 31.6144 11.9502C31.598 11.9301 31.5755 11.8943 31.5498 11.8734C31.4267 11.7671 30.7627 11.3949 30.5394 11.2685ZM15.4237 35.7012C15.3633 35.6207 15.3038 35.5396 15.2453 35.4582C15.2423 35.5036 15.2395 35.5492 15.2369 35.5947C15.299 35.6308 15.3613 35.6662 15.4237 35.7012ZM24.1836 38.4496C25.7845 38.428 27.3851 38.1382 28.8906 37.5908C28.7638 37.6537 28.6357 37.715 28.5063 37.7744C27.1891 38.2095 25.718 38.4427 24.3831 38.5008C24.3165 38.4842 24.25 38.4671 24.1836 38.4496ZM10.8782 18.0027C10.7055 18.3763 10.5995 18.7016 10.4036 19.1067C10.512 18.6901 10.6529 18.5212 10.764 18.116C10.7641 18.1158 10.7642 18.1156 10.7643 18.1154C10.8021 18.0775 10.8401 18.04 10.8782 18.0027ZM9.83307 26.9655C9.78208 26.8488 9.73251 26.731 9.68438 26.6118C9.71093 26.7609 9.73952 26.9081 9.7708 27.0566C9.79146 27.0261 9.81222 26.9958 9.83307 26.9655ZM36.0902 32.0826C36.2905 31.6973 36.9283 30.7829 37.012 30.4287C37.0175 30.4064 36.9008 30.5806 36.996 30.2529C36.8973 30.4872 36.8246 30.6519 36.8557 30.6894C36.8075 30.7498 36.7589 30.8097 36.7099 30.869C36.661 30.9846 36.6102 31.1004 36.558 31.2152C36.5258 31.1813 36.524 31.1914 36.4531 31.3731C36.3989 31.4432 36.3442 31.5125 36.2887 31.5816C36.2854 31.6231 36.2819 31.6647 36.2782 31.7064C36.2155 31.7572 36.1525 31.8073 36.0892 31.8568C35.9518 32.12 36.0926 31.9973 36.0902 32.0826ZM35.1782 33.2951C35.2568 33.2651 36.3886 31.607 35.7929 32.3028C35.6603 32.4976 35.5231 32.689 35.381 32.8773C35.6182 32.8131 35.116 33.2399 35.0779 33.2752C34.9061 33.4607 34.7189 33.7247 34.5924 33.8582C34.484 33.9731 34.4001 34.0226 34.3236 34.1027C34.0648 34.3779 33.6269 34.7823 33.6043 34.8811C33.8251 34.686 34.0433 34.4805 34.258 34.2617C34.4829 34.0299 34.7276 33.8633 35.0608 33.3472C35.1636 33.2372 35.1647 33.3075 35.1782 33.2951ZM9.62889 26.2368C9.68711 26.2437 9.57767 25.4894 9.55786 25.4859C9.54308 25.4852 9.56984 25.734 9.56926 25.7698C9.56928 25.77 9.56931 25.7702 9.56934 25.7704C9.56879 25.7855 9.53655 25.7133 9.54409 25.8306C9.57049 25.9669 9.59876 26.1023 9.62889 26.2368ZM35.4647 15.2255C35.4652 15.0924 33.8509 13.3562 33.7564 13.3546C33.7394 13.3452 33.7487 13.3741 33.7373 13.3755C34.1795 13.7097 34.682 14.318 35.0123 14.7207C35.1052 14.8327 35.0957 14.784 35.1014 14.79C35.1016 14.7903 35.1018 14.7905 35.102 14.7908C35.1563 14.854 35.3427 15.181 35.4647 15.2255ZM37.3015 29.7285C37.2533 29.8173 37.2042 29.9055 37.1543 29.9929C37.1611 30.0239 37.1678 30.0549 37.1744 30.0859C37.1745 30.0857 37.1746 30.0855 37.1747 30.0853C37.2185 29.967 37.2608 29.848 37.3015 29.7285ZM38.328 26.4051C38.3109 26.4273 38.2938 26.4494 38.2766 26.4713C38.2328 26.7214 38.1829 26.9678 38.1259 27.2157C38.1242 27.1891 38.1223 27.1626 38.1203 27.136C38.0186 27.5052 38.0227 27.6675 37.9634 27.8639C37.9634 27.8637 37.9635 27.8635 37.9635 27.8633C37.957 27.8843 37.9234 27.9026 37.9005 27.9808C37.8507 28.1607 37.6783 28.667 37.6816 28.7366C37.7002 28.888 37.9989 27.8484 38.0402 27.6503C38.0639 27.5627 38.1133 27.462 38.1265 27.4081C38.1409 27.349 38.128 27.2612 38.1601 27.1168C38.1713 27.0743 38.3025 26.6128 38.328 26.4051ZM38.3254 21.9453C38.3071 22.0264 38.3574 22.1837 38.3597 22.2439C38.3603 22.2582 38.3217 22.1511 38.3308 22.2857C38.3524 22.3214 38.3739 22.3573 38.3952 22.3934C38.3742 22.2432 38.351 22.0938 38.3254 21.9453ZM9.46454 24.9614C9.45806 24.9843 9.49217 25.3944 9.49945 25.4132C9.57393 25.6528 9.49993 24.8075 9.46454 24.9614ZM12.3685 15.198C12.1632 15.2786 13.701 13.6156 13.8878 13.4953C13.9129 13.5376 13.4974 13.8783 13.7448 13.7297C13.5244 13.8871 13.0374 14.4453 12.9195 14.573C12.8457 14.6488 12.7956 14.6416 12.7842 14.653C12.7375 14.6967 12.4292 15.1603 12.3685 15.198ZM15.3347 12.3247C15.1569 12.4439 14.9813 12.5673 14.8086 12.6944C15.0018 12.5312 15.1997 12.3728 15.4012 12.2198C15.3788 12.2547 15.3567 12.2897 15.3347 12.3247ZM15.5395 12.1486C15.5039 12.1098 16.1277 11.7313 16.2873 11.6258C16.1473 11.8088 15.8045 11.9381 15.5395 12.1486ZM9.42497 22.2201C9.35299 22.5517 9.48607 22.7108 9.46728 22.2977C9.46658 22.2852 9.42836 22.2064 9.42497 22.2201ZM36.3211 32.1102C36.3569 32.0653 36.7745 31.476 36.7711 31.4255C36.7716 31.2743 36.5616 31.6965 36.4518 31.8145C36.2761 32.0041 36.4484 31.6718 36.1329 32.2035C36.1344 32.1741 36.1358 32.1447 36.1371 32.1153C35.9321 32.4117 36.0831 32.3729 36.0577 32.4344C36.05 32.4534 35.9117 32.6339 35.8927 32.6707C35.6607 33.137 36.3006 32.16 36.3211 32.1102ZM10.7147 30.3438C10.9716 30.9657 10.8961 30.6805 11.2243 31.2844C11.2578 31.2913 10.771 30.4149 10.7147 30.3438ZM31.6125 36.5991C32.1971 36.2245 32.6905 35.9264 33.1596 35.4749C33.0917 35.4583 31.4657 36.6951 31.6125 36.5991ZM29.3216 10.2701C31.8032 11.3799 34.3783 13.2878 36.0148 15.6736C36.1934 15.9317 36.178 15.9775 36.2436 16.0699C36.286 16.1307 36.3033 16.1041 36.3566 16.1874C37.8844 18.5791 38.6712 21.3237 38.669 24.053C38.669 24.053 38.669 24.053 38.669 24.053C38.6693 24.7602 38.6185 25.4614 38.515 26.1584C38.493 26.375 38.2319 27.3901 38.2583 27.6273C38.2882 27.8105 38.4099 27.0598 38.4295 26.9359C38.4482 26.8432 38.4815 26.8455 38.4933 26.7833C38.5056 26.7174 38.4733 26.7678 38.4869 26.6911C38.5444 26.3654 38.6039 26.0115 38.6349 25.7137C38.6933 25.1598 38.7211 24.6072 38.7191 24.053C38.7191 24.053 38.7191 24.053 38.7191 24.053C38.7114 21.7039 38.1617 19.3924 37.083 17.2962C36.9203 16.9841 36.9756 17.0365 36.9678 17.0205C36.9677 17.0203 36.9675 17.0201 36.9673 17.02C36.076 15.3465 34.6314 13.6935 33.0682 12.4505C31.9729 11.5659 30.7483 10.8369 29.443 10.2967C29.4026 10.2877 29.3621 10.2788 29.3216 10.2701ZM35.3715 33.256C35.5577 33.1812 35.5107 33.0936 35.9128 32.6113C35.9286 32.5598 35.9442 32.5083 35.9594 32.4568C35.7724 32.7298 35.576 32.9968 35.3708 33.2568C35.3711 33.2565 35.3713 33.2563 35.3715 33.256ZM37.5192 29.7305C37.698 29.6904 38.1017 28.3302 38.2634 27.7173C38.2306 27.5897 38.0165 28.4838 37.9328 28.6866C37.8967 28.7897 37.6409 29.3125 37.5042 29.7307C37.5092 29.7307 37.5142 29.7306 37.5192 29.7305ZM10.916 17.0854C10.871 17.1777 10.827 17.2706 10.784 17.364C10.9139 17.1418 11.0494 16.9234 11.1904 16.7088C10.9777 17.0584 10.7798 17.4165 10.5968 17.7831C10.6037 17.7022 10.6113 17.6212 10.6198 17.5397C10.716 17.386 10.8148 17.2345 10.916 17.0854ZM10.3548 18.2916C10.6334 17.6291 10.3978 18.3451 10.303 18.4977C10.2441 18.5892 10.3268 18.3593 10.3548 18.2916ZM9.69069 20.0388C9.7293 19.701 9.94683 19.0535 9.96268 19.3147C9.80429 19.6447 9.76936 19.8773 9.61111 20.3801C9.61174 20.3011 9.61316 20.2215 9.61516 20.1421C9.61525 20.1417 9.61534 20.1414 9.61544 20.141C9.6404 20.1068 9.66549 20.0727 9.69069 20.0388ZM10.4319 17.9663C10.6726 17.5582 10.113 18.8013 10.2475 18.3934C10.252 18.3739 10.4209 17.9817 10.4319 17.9663ZM32.0504 11.5541C31.9856 11.5498 32.2896 11.7485 32.3873 11.8203C32.8144 12.1243 33.3543 12.5262 33.76 12.8913C33.7362 12.8562 33.7122 12.8212 33.688 12.7862C33.1712 12.3388 32.6237 11.9267 32.0504 11.5541ZM34.9742 14.0879C35.2255 14.3655 35.4666 14.6528 35.6964 14.9486C35.7179 14.976 35.8395 15.0895 35.7707 14.9885C35.5171 14.6774 35.2512 14.3768 34.9742 14.0879ZM33.8971 35.0925C34.1248 34.9141 33.5642 35.5347 33.5254 35.4313C33.6513 35.3204 33.7752 35.2074 33.8971 35.0925ZM31.7826 36.7281C31.9314 36.625 32.078 36.5193 32.2224 36.4112C32.229 36.4206 32.2355 36.4299 32.242 36.4393C32.0907 36.5382 31.9376 36.6345 31.7826 36.7281ZM30.7845 10.7932C30.9373 10.9142 31.3402 11.1278 31.5828 11.2759C31.4329 11.1452 31.0166 10.9296 30.7845 10.7932ZM36.6728 31.8149C36.6463 31.826 37.212 30.8311 37.0599 31.1997C36.9356 31.4083 36.8066 31.6133 36.6728 31.8149ZM37.7637 29.7578C37.675 29.9876 37.5872 30.1583 37.57 30.0949C37.6245 29.9766 37.6777 29.857 37.729 29.7377C37.7405 29.7444 37.7521 29.7511 37.7637 29.7578ZM9.32083 21.2685C9.2475 21.6767 9.19152 22.0859 9.15237 22.4996C9.14262 22.4831 9.13289 22.4666 9.12319 22.45C9.16216 22.0507 9.21684 21.6551 9.28767 21.2608C9.29872 21.2633 9.30978 21.2659 9.32083 21.2685ZM30.6207 10.5956C30.3601 10.4747 30.0976 10.362 29.8306 10.2563C30.0919 10.376 30.3479 10.5023 30.6012 10.6365C30.608 10.6229 30.6147 10.6093 30.6215 10.5957C30.6212 10.5957 30.621 10.5956 30.6207 10.5956ZM11.2812 15.9472C10.5648 17.0106 11.3653 15.579 11.641 15.3569C11.6411 15.3566 11.6413 15.3562 11.6415 15.3559C11.6642 15.3358 11.6554 15.406 11.6947 15.3737C11.6073 15.4709 11.5209 15.5696 11.4359 15.6694C11.3853 15.7784 11.3362 15.888 11.2884 15.9979C11.2612 16.0269 11.2341 16.0559 11.2072 16.0851C11.2316 16.039 11.2563 15.993 11.2812 15.9472ZM14.7255 12.135C15.66 11.4477 14.7476 12.2073 14.2729 12.5313C14.2651 12.5156 14.6391 12.1984 14.7255 12.135ZM12.5379 14.2399C12.4245 14.3834 12.3138 14.5289 12.2059 14.6761C12.1839 14.6883 12.1619 14.7006 12.1399 14.713C12.2195 14.5971 12.3007 14.4823 12.3838 14.3683C12.4349 14.3251 12.4863 14.2823 12.5379 14.2399ZM9.47822 19.4035C9.38069 19.6852 9.36362 20.0732 9.62979 19.1615C9.61884 19.1582 9.60789 19.155 9.59694 19.1518C9.58629 19.1883 9.56123 19.2972 9.55861 19.3028C9.55051 19.3185 9.52045 19.2868 9.47822 19.4035ZM16.3634 10.6809C16.3905 10.6614 16.3475 10.5436 16.7162 10.486C16.806 10.4293 16.8965 10.3735 16.9878 10.3186C17.0243 10.3298 17.0607 10.3411 17.097 10.3526C16.7226 10.5195 16.712 10.5912 16.6863 10.6054C16.5695 10.6748 16.6444 10.6024 16.5674 10.6443C16.3673 10.751 15.9366 11.0318 16.0963 10.8444C16.154 10.7767 16.3362 10.7011 16.3634 10.6809ZM15.6399 11.0383C15.6872 11.0197 15.5711 11.1363 15.6082 11.1243C15.6397 11.1118 16.0788 10.8818 15.9961 11.0031C15.9258 11.0432 15.8559 11.0837 15.7863 11.1248C15.7545 11.1257 15.7226 11.1267 15.6907 11.1278C15.6327 11.1828 15.5753 11.2382 15.5185 11.2939C15.3868 11.3327 15.1236 11.4497 15.383 11.234C15.2825 11.3055 15.1826 11.3784 15.0837 11.4523C15.0426 11.5049 15.0019 11.5577 14.9617 11.6106C14.9715 11.5673 14.9815 11.5239 14.9918 11.4805C15.204 11.3277 15.4202 11.1802 15.6399 11.0383ZM19.0947 9.40193C19.0852 9.42107 19.0758 9.44021 19.0663 9.45936C19.4867 9.28434 20.1659 9.09367 19.8051 9.29069C19.2202 9.46316 18.6437 9.67165 18.0841 9.91303C18.0424 9.91804 18.0008 9.92315 17.9588 9.92861C18.3956 9.79457 18.196 9.6738 18.589 9.58156C18.6554 9.56745 18.4947 9.69327 18.877 9.51247C18.8578 9.50304 18.8386 9.49365 18.8194 9.48429C18.9108 9.456 19.0026 9.42855 19.0947 9.40193ZM22.915 8.67691C22.1397 8.71584 22.9873 8.59008 23.1356 8.63242C23.1353 8.63243 23.1351 8.63244 23.1348 8.63246C23.5324 8.73758 22.6876 8.72224 22.637 8.73278C22.5683 8.74038 22.422 8.84062 22.0364 8.75538C22.3296 8.72075 22.621 8.69477 22.915 8.67691ZM20.4076 9.03043C20.4705 9.01263 20.4405 9.04317 20.4679 9.03645C20.4681 9.0364 20.4683 9.03634 20.4686 9.03629C20.8715 8.92806 21.8454 8.75008 21.9609 8.81643C21.6561 8.84454 20.3136 9.13058 20.2248 9.11586C20.2854 9.08702 20.3463 9.05854 20.4076 9.03043ZM17.6617 10.0193C17.4092 10.0805 17.9315 9.83819 18.08 9.80407C18.1078 9.79793 17.922 9.95632 17.6617 10.0193ZM8.56774 25.9082C8.66702 26.4638 8.60247 25.7261 8.67904 25.9745C8.66201 25.8687 8.64606 25.7625 8.63119 25.6559C8.60937 25.7397 8.58822 25.8238 8.56774 25.9082ZM27.1889 39.3107C27.3198 39.2883 27.2524 39.2745 27.2636 39.2717C27.3488 39.2541 27.4336 39.2577 27.4657 39.2479C28.0539 39.0604 27.6498 39.1337 27.6431 39.1303C27.6243 39.1069 27.7724 39.0383 27.5493 39.0604C27.4204 39.101 27.2906 39.14 27.16 39.1773C27.0909 39.1764 27.0225 39.175 26.9542 39.173C26.6979 39.2556 27.043 39.1983 27.0907 39.2315C27.1095 39.2449 26.8641 39.3158 27.1889 39.3107ZM8.63079 26.9243C8.69434 27.0064 8.79684 27.2131 8.80168 26.989C8.80164 26.9888 8.80159 26.9886 8.80154 26.9883C8.80228 26.947 8.77708 26.7839 8.7807 26.7318C8.65849 26.3856 8.61294 26.5315 8.63079 26.9243ZM24.771 39.7105C24.551 39.7106 24.3306 39.7061 24.1095 39.697C24.113 39.6684 24.1164 39.6397 24.1199 39.6111C24.2376 39.6176 24.3551 39.6228 24.4726 39.6267C24.5132 39.6123 24.5537 39.5978 24.5941 39.5831C24.448 39.5563 24.3022 39.5275 24.1569 39.4967C24.0913 39.5018 24.0256 39.5065 23.9597 39.5108C23.9597 39.5108 23.9597 39.5108 23.9597 39.5108C23.8504 39.5179 23.7412 39.5239 23.6321 39.5288C23.7121 39.5455 23.7924 39.5617 23.8731 39.5772C23.4439 39.5885 23.5384 39.5203 23.189 39.479C23.0671 39.4996 22.944 39.5187 22.8212 39.5363C22.6476 39.497 22.4771 39.455 22.3056 39.41C22.0117 39.39 21.9833 39.4054 22.1771 39.4592C22.0269 39.4769 21.8744 39.4025 21.6986 39.3911C21.6841 39.3901 21.7064 39.4264 21.6937 39.4249C20.7846 39.3038 20.8549 39.2093 20.7118 39.1799C20.6115 39.1576 20.1991 39.1195 20.1881 39.1359C20.1725 39.1563 20.9849 39.4776 19.675 39.1382C20.3303 39.4033 21.1315 39.4772 20.6492 39.2705C20.8608 39.3361 21.822 39.469 21.8825 39.4731C21.9711 39.4896 21.9345 39.5258 22.0467 39.5408C22.1137 39.5482 22.298 39.484 22.8162 39.6046C22.8847 39.5943 22.9531 39.5836 23.0214 39.5725C23.0837 39.5887 23.147 39.6046 23.2089 39.62C23.0771 39.6582 22.9428 39.6947 22.8087 39.7295C23.2711 39.7203 23.6537 39.7939 23.9597 39.7576C23.9597 39.7576 23.9597 39.7576 23.9597 39.7576C24.0004 39.7528 24.0394 39.7459 24.0767 39.7366C24.3507 39.7431 24.4834 39.7459 24.367 39.7887C24.4493 39.7866 24.5314 39.7838 24.6133 39.7805C24.6662 39.7574 24.7186 39.7341 24.771 39.7105ZM9.08911 28.5251C9.12446 28.7953 9.24782 28.8586 9.23955 28.8169C9.19519 28.5836 9.07175 28.385 9.08911 28.5251ZM26.6989 39.3541C26.4013 39.382 26.1055 39.4009 25.8087 39.4114C25.8123 39.4415 25.8159 39.4715 25.8194 39.5016C26.1143 39.4608 26.4066 39.4118 26.6989 39.3541ZM8.49057 25.8338C8.51 25.804 8.52951 25.7743 8.54911 25.7446C8.43112 25.4296 8.52747 25.0985 8.49425 24.94C8.48697 24.9054 8.45079 24.9781 8.44645 25.0452C8.44 25.0878 8.47238 25.776 8.49057 25.8338ZM12.6475 13.3702C12.5753 13.4689 12.5043 13.5682 12.4347 13.6682C12.4202 13.6462 12.4058 13.6241 12.3913 13.602C12.4281 13.5543 12.4651 13.5068 12.5024 13.4595C12.5507 13.4294 12.5991 13.3997 12.6475 13.3702ZM11.777 14.4392C11.6416 14.6072 11.5096 14.7783 11.3813 14.9518C11.8548 14.2772 11.4386 14.8107 11.7188 14.3932C11.7382 14.4085 11.7576 14.4238 11.777 14.4392ZM10.5025 16.2167C10.5028 16.186 10.5031 16.1553 10.5036 16.1246C10.6138 15.9378 10.7284 15.7526 10.8465 15.5705C10.7275 15.657 10.6091 15.7457 10.4916 15.8366C10.4494 15.9053 10.408 15.9739 10.367 16.0431C10.412 16.1012 10.4571 16.1591 10.5025 16.2167ZM32.6256 37.1543C32.7374 37.0838 33.0871 36.7824 33.0601 36.7792C32.8935 36.8728 32.725 36.9635 32.5559 37.0505C32.5719 37.0763 32.5879 37.1021 32.604 37.1278C32.5732 37.1301 32.5425 37.1323 32.5117 37.1343C32.4276 37.203 32.3427 37.2708 32.2569 37.3379C32.1966 37.3444 32.1363 37.3505 32.0761 37.3562C32.0453 37.4106 32.0143 37.4646 31.9827 37.5187C32.4584 37.2934 32.4118 37.2517 32.5039 37.1943C32.5502 37.1644 32.5897 37.1608 32.6112 37.1579C32.616 37.1567 32.6208 37.1555 32.6256 37.1543ZM26.5276 39.5792C27.1484 39.4824 27.4795 39.3229 27.9336 39.2758C27.627 39.2368 25.8097 39.7262 25.1366 39.6247C25.0702 39.6525 25.0035 39.6799 24.9363 39.7069C25.2946 39.6642 25.5431 39.6854 25.7205 39.6727C25.8601 39.6622 25.8426 39.6398 25.8533 39.639C25.8538 39.6389 25.8543 39.6388 25.8548 39.6388C26.1803 39.6083 26.2813 39.6157 26.5276 39.5792ZM8.33403 25.3848C8.31131 25.5545 8.34681 25.8478 8.39987 25.8449C8.39641 25.68 8.39575 25.5173 8.39755 25.354C8.38689 25.3884 8.33779 25.3558 8.33403 25.3848ZM10.2492 16.3633C10.1689 16.4693 10.036 16.7502 10.1391 16.6537C10.1569 16.6363 10.2777 16.3508 10.2623 16.5487C10.4063 16.2863 10.2949 16.3031 10.2492 16.3633ZM16.2349 37.6402C16.1386 37.5871 16.043 37.533 15.948 37.478C15.9151 37.4831 15.8822 37.4881 15.8492 37.4929C15.9773 37.5438 16.1059 37.5929 16.2349 37.6402ZM8.24203 23.969C8.34657 23.823 8.24937 23.5701 8.34783 23.3007C8.35325 23.2002 8.35974 23.0981 8.36715 22.9971C8.36716 22.9969 8.36718 22.9966 8.3672 22.9964C8.33909 22.9917 8.31099 22.9871 8.2829 22.9824C8.25895 23.3132 8.24553 23.6378 8.24203 23.969ZM22.7299 39.6838C22.6633 39.6654 22.5969 39.6465 22.5309 39.6273C22.41 39.6318 22.2882 39.6348 22.1659 39.6363C22.2298 39.6547 22.294 39.6726 22.3583 39.6902C22.4821 39.6895 22.6059 39.6874 22.7299 39.6838ZM8.34307 22.1827C8.29001 22.537 8.36703 22.6782 8.41603 22.2262C8.43846 22.0364 8.40296 21.8137 8.34307 22.1827ZM37.2937 32.2935C37.223 32.393 37.1512 32.4915 37.0784 32.5891C37.0717 32.6341 37.0648 32.6792 37.0577 32.7243C37.1386 32.5819 37.2173 32.4383 37.2937 32.2935ZM11.1626 14.9439C11.1698 14.9666 11.177 14.9892 11.1842 15.0118C11.1184 15.0981 11.0535 15.185 10.9894 15.2727C10.9891 15.2396 10.9889 15.2063 10.9888 15.1731C11.0461 15.0961 11.104 15.0197 11.1626 14.9439ZM36.835 32.9715C36.7765 33.0494 36.7174 33.1266 36.6576 33.2032C36.6269 33.2616 36.5958 33.3197 36.5644 33.3777C36.6259 33.31 36.6869 33.2418 36.7474 33.1729C36.7771 33.1059 36.8063 33.0388 36.835 32.9715ZM9.10684 18.8978C9.03844 19.0198 8.93871 19.5629 9.10822 19.1001C9.21945 18.8074 9.11729 18.8796 9.10684 18.8978ZM9.34454 18.197C9.11601 18.6687 9.45145 18.3808 9.56667 17.7558C9.33815 18.3399 9.36019 18.1701 9.34454 18.197ZM11.563 14.168C11.5714 14.1577 11.6028 14.1688 11.6701 14.0876C11.9117 13.794 12.254 13.4276 12.4423 13.2321C12.8654 12.7343 14.36 11.3931 14.6208 11.3518C14.6713 11.3387 14.6158 11.4512 14.6335 11.4418C14.684 11.4135 14.9375 11.1974 14.9123 11.2679C14.6469 11.4556 14.3871 11.6517 14.1339 11.8555C14.1772 11.7822 14.2213 11.7089 14.2661 11.6359C13.6404 12.1573 13.8527 11.9917 13.716 12.1909C13.5956 12.2615 13.476 12.3339 13.3571 12.408C13.1523 12.6289 12.9544 12.8551 12.7635 13.0862C12.7974 13.0246 12.8318 12.9631 12.8666 12.9018C12.5236 13.1978 12.6287 13.1261 12.4923 13.3364C12.4782 13.3239 12.464 13.3113 12.4498 13.2987C12.1871 13.6499 12.0928 13.6789 12.0288 13.7503C11.9002 13.9017 11.9074 14.2201 11.2837 14.681C11.1844 14.9973 11.0124 14.866 10.9966 15.0817C10.595 15.4554 11.2016 14.635 11.5102 14.2642C11.5104 14.264 11.5106 14.2638 11.5107 14.2636C11.5335 14.2353 11.4816 14.2679 11.563 14.168ZM10.1362 16.5122C10.1996 16.1774 9.59929 17.3092 9.92071 16.9967C9.95303 16.9428 9.98564 16.8891 10.0185 16.8357C10.0567 16.7273 10.0959 16.6194 10.1365 16.5115C10.1364 16.5117 10.1363 16.5119 10.1362 16.5122ZM8.68187 28.1308C9.04745 29.2579 8.91205 28.5956 8.75083 28.2261C8.71916 28.1518 8.6935 28.1131 8.68187 28.1308ZM27.4238 39.4825C27.4382 39.4672 27.4524 39.4519 27.4667 39.4366C27.081 39.5413 26.3191 39.6207 26.3401 39.6951C26.7053 39.6366 27.0636 39.5663 27.4238 39.4825ZM24.3105 39.9117C24.3963 39.9157 24.7451 39.9132 24.7016 39.8847C24.5502 39.8706 24.3988 39.8543 24.2475 39.836C24.1775 39.8504 24.1072 39.8644 24.0366 39.8779C24.1352 39.8821 24.2873 39.911 24.3105 39.9117Z" fill="#E30614"/>
<path d="M20.795 9.01216L20.2684 9.33621L20.633 11.2805L21.8482 11.3615L22.1317 11.1185L22.0102 9.9438L21.5646 8.72861L20.795 9.01216Z" fill="black"/>
<path d="M16.9469 11.159V9.98431L17.8786 9.74127H17.595L17.6355 9.61975L19.1748 9.09317L19.8634 8.93114L20.3899 8.85013L20.9975 8.72861L20.876 8.89064L19.6608 9.49823L18.0001 9.74127H17.8786L18.1216 9.82228L18.2431 10.916L18.5267 11.7666L17.838 12.0096H17.3925L16.9469 11.159Z" fill="black"/>
<path d="M18.6887 12.0906L18.1216 12.0501L18.0811 11.9691L20.0659 11.321L21.4431 11.402L21.6051 11.483L19.5798 11.9286L18.6887 12.0906Z" fill="black"/>
<path d="M23.3213 8.28441C23.3698 8.29317 23.4125 8.32668 23.4303 8.37612L23.5232 8.63401C23.6681 8.92741 23.807 9.29355 23.8638 9.55881C23.9206 9.82405 23.9439 10.215 23.9319 10.542L23.9527 10.8153C23.9567 10.8677 23.9314 10.9157 23.8908 10.9436C23.8674 11.0578 23.8347 11.1321 23.7923 11.1411L23.3661 11.2324C23.3573 11.2537 23.3434 11.2725 23.3258 11.2873C23.3081 11.302 23.2871 11.3123 23.2646 11.3171L22.4817 11.4848C22.4592 11.4895 22.4359 11.4888 22.4137 11.4826C22.3915 11.4764 22.3712 11.4649 22.3545 11.4491L21.7898 11.57L21.8047 11.8129C21.8123 11.9358 21.6242 11.9976 21.6242 11.9976L21.6004 11.6106L19.2483 12.1143L18.5249 12.3952C18.5249 12.3952 17.3066 12.5861 17.0286 12.4638C16.7505 12.3415 16.5155 11.4404 16.4525 11.1461C16.3895 10.8518 16.2348 9.93346 16.4383 9.70798C16.6419 9.4825 17.8316 9.15775 17.8316 9.15775L18.6065 9.11772L20.9586 8.61398L20.8218 8.25113C20.8218 8.25113 21.0187 8.2305 21.0622 8.34571C21.0848 8.40591 21.1198 8.4985 21.148 8.57341L21.7127 8.45247C21.7215 8.4312 21.7353 8.41239 21.753 8.39764C21.7707 8.38289 21.7917 8.37264 21.8142 8.36778L22.597 8.2001C22.6195 8.19532 22.6429 8.19608 22.665 8.2023C22.6872 8.20852 22.7075 8.22002 22.7243 8.23582L23.1505 8.14453C23.1929 8.13548 23.2532 8.18984 23.3213 8.28441ZM20.0732 11.4147L20.143 11.7408C20.7663 11.6128 21.5013 11.4627 21.5013 11.4627C21.5013 11.4627 20.4817 11.344 20.0732 11.4147ZM19.3303 11.9091C19.4347 11.8867 19.7125 11.8293 20.0358 11.7628L19.9664 11.439C19.5305 11.5488 18.3573 11.8866 18.2308 11.958C18.0976 12.0331 19.0181 11.9759 19.3303 11.9091ZM17.1019 10.0296C17.0073 10.1758 16.9962 10.6143 17.0822 11.0156C17.1681 11.4169 17.3578 11.8124 17.5039 11.907C17.6501 12.0016 18.4084 11.7203 18.4084 11.7203C18.4084 11.7203 18.149 11.1299 18.0788 10.8021C18.0086 10.4744 18.0034 9.82954 18.0034 9.82954C18.0034 9.82954 17.1965 9.88343 17.1019 10.0296ZM20.6719 10.2468C20.7712 10.7105 20.7514 11.2278 20.7514 11.2278C20.7514 11.2278 21.7763 11.3534 21.926 11.1814C22.0758 11.0095 22.0535 10.6878 21.9026 9.98318C21.7517 9.27863 21.6403 8.97605 21.4333 8.88047C21.2262 8.78489 20.3426 9.31925 20.3426 9.31925C20.3426 9.31925 20.5726 9.78303 20.6719 10.2468ZM18.7671 9.27977C18.455 9.34662 17.5918 9.67141 17.7441 9.68544C17.8888 9.69876 19.0974 9.52638 19.5401 9.44803L19.4707 9.12421C19.1485 9.196 18.8716 9.2574 18.7671 9.27977ZM19.5775 9.10041L19.6474 9.42642C20.0489 9.32372 20.9305 8.79778 20.9305 8.79778C20.9305 8.79778 20.1986 8.96193 19.5775 9.10041Z" fill="white"/>
<path d="M12.2549 18.8144C12.3195 18.3257 12.768 17.9818 13.2568 18.0464C13.7455 18.111 14.0894 18.5595 14.0248 19.0483C13.9602 19.537 13.5116 19.8809 13.0229 19.8163C12.5341 19.7517 12.1903 19.3032 12.2549 18.8144Z" fill="#AAAAAA"/>
<path d="M16.434 13.2286C16.3384 13.3822 16.1574 13.4498 15.9908 13.409C15.9958 13.5593 15.9487 13.7068 15.8575 13.8265C15.8364 13.8545 15.813 13.8808 15.7877 13.9051C16.1325 14.1972 16.2203 14.7056 15.9743 15.1007C15.822 15.3452 15.5744 15.4941 15.3096 15.5293C15.6341 15.545 15.9572 15.3892 16.1412 15.0939C16.147 15.0846 16.1523 15.0753 16.1577 15.0659C16.2116 15.0874 16.2635 15.1137 16.3128 15.1443C16.3755 15.1834 16.4336 15.2294 16.4861 15.2814C16.8071 15.599 16.8782 16.1069 16.6294 16.5064C16.3544 16.9479 15.7881 17.0972 15.3344 16.8609C15.3868 16.9129 15.445 16.9589 15.5077 16.998C15.5767 17.041 15.6507 17.0753 15.7281 17.1002C15.874 17.3875 15.8809 17.7394 15.7152 18.0438C15.4478 18.5352 14.8327 18.7167 14.3413 18.4493C14.1569 18.3493 14.0083 18.1941 13.9163 18.0056C14.1511 17.9396 14.3629 17.7893 14.502 17.566C14.7504 17.167 14.6875 16.6624 14.3794 16.3358C14.5655 16.6353 14.59 17.0235 14.4094 17.3553C14.142 17.8467 13.5269 18.0282 13.0356 17.7608C12.941 17.7094 12.8553 17.6432 12.7816 17.5648C12.4902 17.2548 12.4155 16.7812 12.6301 16.387C12.7307 16.2015 12.8871 16.0522 13.0772 15.9603C13.1055 15.8144 13.1562 15.6736 13.2273 15.5431C13.4525 15.1293 13.8499 14.8692 14.2821 14.8027C14.2715 14.7528 14.265 14.7021 14.2627 14.6511C14.1667 14.6399 14.0744 14.6075 13.9923 14.5563C13.6845 14.3646 13.5903 13.9595 13.7821 13.6516C13.7845 13.6476 13.7872 13.6439 13.7897 13.64C13.9843 13.3415 14.3828 13.252 14.6868 13.4413C14.8376 13.5352 14.9369 13.6803 14.9767 13.8401C14.9865 13.6281 14.8847 13.4171 14.6917 13.297L14.691 13.2966C14.7067 13.2206 14.7358 13.1481 14.7768 13.0823C14.9686 12.7744 15.3736 12.6803 15.6816 12.872C15.6882 12.8762 15.6946 12.8806 15.7011 12.8849C15.7111 12.8543 15.7247 12.8249 15.7417 12.7975C15.8607 12.6063 16.1122 12.5478 16.3034 12.6669C16.4946 12.786 16.5531 13.0375 16.434 13.2286Z" fill="#AAAAAA"/>
<path d="M47.368 25V8.2H53.032V20.608H60.616V25H47.368ZM62.5109 25L69.8549 8.2H75.4229L82.7669 25H76.9109L71.4869 10.888H73.6949L68.2709 25H62.5109ZM66.8789 22.072L68.3189 17.992H76.0469L77.4869 22.072H66.8789ZM85.5908 25V8.2H93.8708C95.7428 8.2 97.3908 8.544 98.8148 9.232C100.239 9.904 101.351 10.864 102.151 12.112C102.951 13.36 103.351 14.848 103.351 16.576C103.351 18.32 102.951 19.824 102.151 21.088C101.351 22.336 100.239 23.304 98.8148 23.992C97.3908 24.664 95.7428 25 93.8708 25H85.5908ZM91.2548 20.584H93.6308C94.4308 20.584 95.1268 20.432 95.7188 20.128C96.3268 19.824 96.7988 19.376 97.1348 18.784C97.4708 18.176 97.6388 17.44 97.6388 16.576C97.6388 15.728 97.4708 15.008 97.1348 14.416C96.7988 13.824 96.3268 13.376 95.7188 13.072C95.1268 12.768 94.4308 12.616 93.6308 12.616H91.2548V20.584ZM105.281 25L112.625 8.2H118.193L125.537 25H119.681L114.257 10.888H116.465L111.041 25H105.281ZM109.649 22.072L111.089 17.992H118.817L120.257 22.072H109.649Z" fill="white"/>
<path d="M75.1934 31.0254C76.1997 31.0254 77.0617 31.1798 77.7793 31.4883C78.5063 31.7883 79.0612 32.2214 79.4434 32.7871C79.8254 33.3442 80.0166 34.0089 80.0166 34.7803C80.0166 35.5771 79.8674 36.2968 79.5693 36.9395C79.2804 37.5823 78.8657 38.1358 78.3252 38.5986C77.7846 39.0529 77.1411 39.4038 76.3955 39.6523C75.6499 39.9009 74.8249 40.0254 73.9209 40.0254H58L59 37.0254H56L55 40.0254H52L53 37.0254H50L49 40.0254H46L47 37.0254H50L51 34.0254H48L49 31.0254H52L51 34.0254H54L55 31.0254H58L57 34.0254H60L61 31.0254H75.1934ZM86.4414 31.0254C87.6623 31.0254 88.6039 31.2702 89.2656 31.7588C89.9364 32.2473 90.2714 32.9328 90.2715 33.8154C90.2715 34.5697 90.076 35.2261 89.6846 35.7832C89.3025 36.3316 88.7526 36.7557 88.0352 37.0557C87.8561 37.1315 87.6684 37.1972 87.4727 37.2539L89.1816 40.0254H86.791L85.249 37.5059H83.3223L82.7783 40.0254H80.5L82.457 31.0254H86.4414ZM93.4258 40.0254H91.1475L93.1045 31.0254H95.3828L93.4258 40.0254ZM104.788 32.6973H99.6709L99.1582 35.0752H103.697L103.32 36.7471H98.7979L98.0918 40.0254H95.8125L97.7695 31.0254H105.165L104.788 32.6973ZM114.896 32.6963H111.778L110.185 40H107.92L109.5 32.6963H106.368L106.746 31H115.273L114.896 32.6963ZM64.6826 38.3154H73.9912C74.7833 38.3154 75.4541 38.1652 76.0039 37.8652C76.563 37.5653 76.9875 37.1587 77.2764 36.6445C77.5746 36.1302 77.7236 35.5469 77.7236 34.8955C77.7236 34.4498 77.621 34.0681 77.416 33.751C77.211 33.4254 76.8987 33.1772 76.4795 33.0059C76.0694 32.8259 75.5565 32.7354 74.9414 32.7354H66.5L64.6826 38.3154ZM54 34.0254L53 37.0254H56L57 34.0254H54ZM60 34.0254L59 37.0254H62L63 34.0254H60ZM83.6797 35.8467H85.6025C86.3575 35.8467 86.9405 35.6924 87.3506 35.3838C87.7696 35.0667 87.9794 34.6084 87.9795 34.0088C87.9795 33.5717 87.8164 33.2497 87.4902 33.0439C87.1734 32.8297 86.7253 32.7227 86.1475 32.7227H84.3604L83.6797 35.8467Z" fill="#E30614"/>
</svg>
